<?xml version="1.0" encoding="utf-8"?>
<svg id="master-artboard" viewBox="0 0 940.486572265625 623.096435546875" xmlns="http://www.w3.org/2000/svg" width="940.486572265625px" height="623.096435546875px" version="1.1" style="shape-rendering:geometricPrecision; text-rendering:geometricPrecision; image-rendering:optimizeQuality; fill-rule:evenodd; clip-rule:evenodd"><rect id="ee-background" x="0" y="0" width="940.486572265625" height="623.096435546875" style="fill: rgb(255, 255, 255); fill-opacity: 0; pointer-events: none;"/>

 <metadata id="CorelCorpID_0Corel-Layer"/>
<defs>
<linearGradient id="gradient-0" gradientUnits="objectBoundingBox" x1="0.5" y1="0" x2="0.5" y2="1">
                <stop offset="0" style="stop-color: #ffffff"/>
                <stop offset="1" style="stop-color: #cccccc"/>
              </linearGradient></defs><g transform="matrix(0.9074075222015381, 0, 0, 0.9074075222015381, 465.250244140625, 387.16339111328125)" id="fa3f726a-dbca-497b-ab59-6a35fd2da122">
</g><g transform="matrix(1.698026180267334, 0, 0, 1.698026180267334, -734.8851623535156, -564.0744323730469)"><path d="M -540 -540 H 540 V 540 H -540 V -540 Z" style="stroke: none; stroke-width: 1; stroke-dasharray: none; stroke-linecap: butt; stroke-dashoffset: 0; stroke-linejoin: miter; stroke-miterlimit: 4; fill: rgb(255,255,255); fill-rule: nonzero; opacity: 1; visibility: hidden;" vector-effect="non-scaling-stroke" transform="matrix(0.9074075222015381, 0, 0, 0.9074075222015381, 701.6989135742188, 523.9764404296875)"/><path style="stroke: none; stroke-width: 1; stroke-dasharray: none; stroke-linecap: butt; stroke-dashoffset: 0; stroke-linejoin: miter; stroke-miterlimit: 4; fill: rgb(227,190,23); fill-rule: nonzero; opacity: 1;" vector-effect="non-scaling-stroke" transform="matrix(0.9074075222015381, 0, 0, 0.9074075222015381, 309.9710693359375, 238.46070861816406)" d="M 431.8 400.1 C 426.8 400.1 422.1 398.20000000000005 418.5 394.70000000000005 L 353.6 332.1 C 347.90000000000003 326.6 346.20000000000005 318.3 349.20000000000005 311 L 358.30000000000007 289.2 L 362.20000000000005 251.6 C 362.70000000000005 246.4 365.50000000000006 241.6 369.6 238.4 L 420.1 199.9 C 423.40000000000003 197.4 427.5 196 431.70000000000005 196 C 435.9000000000001 196 440.00000000000006 197.4 443.30000000000007 199.9 L 493.80000000000007 238.4 C 498.00000000000006 241.6 500.70000000000005 246.4 501.20000000000005 251.6 L 505.20000000000005 289.5 L 514.2 310.9 C 517.2 318.09999999999997 515.5 326.7 509.80000000000007 332.09999999999997 L 445.00000000000006 394.7 C 441.5 398.2 436.8 400.1 431.8 400.1 z" stroke-linecap="round"/><path style="stroke: none; stroke-width: 1; stroke-dasharray: none; stroke-linecap: butt; stroke-dashoffset: 0; stroke-linejoin: miter; stroke-miterlimit: 4; fill: rgb(0,0,0); fill-rule: nonzero; opacity: 1;" vector-effect="non-scaling-stroke" transform="matrix(0.9074075222015381, 0, 0, 0.9074075222015381, 309.9710693359375, 238.46063232421875)" d="M 431.8 396 C 427.90000000000003 396 424.2 394.5 421.3 391.8 L 356.4 329.2 C 351.9 324.9 350.59999999999997 318.3 353 312.59999999999997 L 362.3 290.2 L 366.3 252 C 366.7 247.9 368.90000000000003 244.1 372.1 241.6 L 422.6 203.1 C 425.20000000000005 201.1 428.40000000000003 200 431.70000000000005 200 C 435.00000000000006 200 438.20000000000005 201.1 440.80000000000007 203.1 L 491.30000000000007 241.6 C 494.6000000000001 244.1 496.70000000000005 247.9 497.1000000000001 252 L 501.1000000000001 290.5 L 510.30000000000007 312.5 C 512.7 318.2 511.30000000000007 324.9 506.9000000000001 329.2 L 442.1000000000001 391.8 C 439.4 394.5 435.7 396 431.8 396 z" stroke-linecap="round"/><path style="stroke: none; stroke-width: 1; stroke-dasharray: none; stroke-linecap: butt; stroke-dashoffset: 0; stroke-linejoin: miter; stroke-miterlimit: 4; fill: rgb(64,64,65); fill-rule: nonzero; opacity: 1;" vector-effect="non-scaling-stroke" transform="matrix(0.9074075222015381, 0, 0, 0.9074075222015381, 309.9710998535156, 238.46067810058594)" d="M 502.9 315.7 L 493.2 292.59999999999997 L 489 252.89999999999998 C 488.8 250.99999999999997 487.8 249.29999999999998 486.3 248.2 L 435.8 209.7 C 433.3 207.79999999999998 430 207.79999999999998 427.5 209.7 L 377 248.2 C 375.5 249.29999999999998 374.5 251.1 374.3 252.89999999999998 L 370.2 292.29999999999995 L 360.4 315.79999999999995 C 359.29999999999995 318.4 359.9 321.4 362 323.4 L 426.9 386 C 429.59999999999997 388.6 433.79999999999995 388.6 436.4 386 L 501.2 323.4 C 503.4 321.3 504 318.3 502.9 315.7 z" stroke-linecap="round"/><path style="stroke: none; stroke-width: 1; stroke-dasharray: none; stroke-linecap: butt; stroke-dashoffset: 0; stroke-linejoin: miter; stroke-miterlimit: 4; fill: rgb(64,64,65); fill-rule: nonzero; opacity: 1;" vector-effect="non-scaling-stroke" transform="matrix(0.9074075222015381, 0, 0, 0.9074075222015381, 309.9710693359375, 238.45156860351562)" d="M 374.3 254.9 L 369 305.1 L 431.8 338 L 494.6 305.1 L 489.3 254.90000000000003 C 489 251.70000000000005 487.3 248.80000000000004 484.8 246.90000000000003 L 443 215.1 C 436.4 210 427.2 210 420.5 215.1 L 378.7 246.9 C 376.3 248.9 374.6 251.7 374.3 254.9 z" stroke-linecap="round"/><path style="stroke: none; stroke-width: 1; stroke-dasharray: none; stroke-linecap: butt; stroke-dashoffset: 0; stroke-linejoin: miter; stroke-miterlimit: 4; fill: rgb(64,64,65); fill-rule: nonzero; opacity: 1;" vector-effect="non-scaling-stroke" transform="matrix(0.9074075222015381, 0, 0, 0.9074075222015381, 309.9710693359375, 238.46058654785156)" d="M 360.6 315.7 L 390.6 243.7 L 431.6 226.89999999999998 L 472.6 243.7 L 502.90000000000003 315.7 C 504.00000000000006 318.3 503.40000000000003 321.3 501.3 323.3 L 436.5 385.90000000000003 C 433.8 388.50000000000006 429.6 388.50000000000006 427 385.90000000000003 L 362.1 323.3 C 360.1 321.3 359.5 318.3 360.6 315.7 z" stroke-linecap="round"/><path style="stroke: none; stroke-width: 1; stroke-dasharray: none; stroke-linecap: butt; stroke-dashoffset: 0; stroke-linejoin: miter; stroke-miterlimit: 4; fill: rgb(0,0,0); fill-rule: nonzero; opacity: 1;" vector-effect="non-scaling-stroke" transform="matrix(0.9074075222015381, 0, 0, 0.9074075222015381, 309.9710693359375, 238.4606475830078)" d="M 377.8 311.4 L 397.6 258.2 L 431.8 230.79999999999998 L 466 258.2 L 485.8 311.4 C 486.7 313.9 486.1 316.7 484.3 318.59999999999997 L 436.7 366.79999999999995 C 434 369.49999999999994 429.59999999999997 369.49999999999994 427 366.79999999999995 L 379.4 318.59999999999997 C 377.5 316.7 376.9 313.9 377.8 311.4 z" stroke-linecap="round"/><path d="M 1.0499999523162842 2.5 L 1.5499999523162842 -2.5 L -1.5499999523162842 -2.5 L -0.6500000357627869 2.5 Z" style="stroke: none; stroke-width: 1; stroke-dasharray: none; stroke-linecap: butt; stroke-dashoffset: 0; stroke-linejoin: miter; stroke-miterlimit: 4; fill: rgb(103,115,50); fill-rule: nonzero; opacity: 1;" vector-effect="non-scaling-stroke" transform="matrix(0.9074075222015381, 0, 0, 0.9074075222015381, 708.640625, 550.1550903320312)"/><path style="stroke: none; stroke-width: 1; stroke-dasharray: none; stroke-linecap: butt; stroke-dashoffset: 0; stroke-linejoin: miter; stroke-miterlimit: 4; fill: rgb(103,115,50); fill-rule: nonzero; opacity: 1;" vector-effect="non-scaling-stroke" transform="matrix(0.9074075222015381, 0, 0, 0.9074075222015381, 309.9710693359375, 238.4606170654297)" d="M 449.1 345.4 C 449.20000000000005 344.4 448.40000000000003 343.59999999999997 447.5 343.7 L 442.8 344.09999999999997 C 442.3 344.09999999999997 441.90000000000003 344.4 441.7 344.9 L 440.59999999999997 347.2 C 440.49999999999994 347.4 440.4 347.5 440.2 347.5 L 439.4 347.8 C 439 347.90000000000003 438.59999999999997 347.8 438.5 347.40000000000003 L 437.3 344.00000000000006 C 437.1 343.50000000000006 436.6 343.20000000000005 436 343.20000000000005 L 427.5 343.30000000000007 C 427 343.30000000000007 426.5 343.6000000000001 426.3 344.1000000000001 L 424.90000000000003 347.6000000000001 C 424.8 347.9000000000001 424.40000000000003 348.1000000000001 424.00000000000006 348.00000000000006 L 423.1000000000001 347.70000000000005 C 422.9000000000001 347.6 422.80000000000007 347.50000000000006 422.7000000000001 347.40000000000003 L 421.6000000000001 345.20000000000005 C 421.4000000000001 344.80000000000007 421.00000000000006 344.50000000000006 420.6000000000001 344.50000000000006 L 415.9000000000001 343.90000000000003 C 414.80000000000007 343.8 413.9000000000001 344.8 414.2000000000001 345.8 L 415.1000000000001 349.2 L 421.7000000000001 358.4 C 423.0000000000001 360.2 425.1000000000001 361.2 427.3000000000001 361.2 L 435.90000000000015 361.2 C 438.10000000000014 361.2 440.20000000000016 360.09999999999997 441.50000000000017 358.4 L 448.8000000000002 348.29999999999995 L 449.1 345.4 z" stroke-linecap="round"/><path d="M 0.6500000357627869 2.5 L 1.5499999523162842 -2.5 L -1.5499999523162842 -2.5 L -1.0499999523162842 2.5 Z" style="stroke: none; stroke-width: 1; stroke-dasharray: none; stroke-linecap: butt; stroke-dashoffset: 0; stroke-linejoin: miter; stroke-miterlimit: 4; fill: rgb(103,115,50); fill-rule: nonzero; opacity: 1;" vector-effect="non-scaling-stroke" transform="matrix(0.9074075222015381, 0, 0, 0.9074075222015381, 694.66650390625, 550.1550903320312)"/><path style="stroke: none; stroke-width: 1; stroke-dasharray: none; stroke-linecap: butt; stroke-dashoffset: 0; stroke-linejoin: miter; stroke-miterlimit: 4; fill: rgb(103,115,50); fill-rule: nonzero; opacity: 1;" vector-effect="non-scaling-stroke" transform="matrix(0.9074075222015381, 0, 0, 0.9074075222015381, 309.9710998535156, 238.46067810058594)" d="M 454.4 330.8 C 454.7 330.6 454.9 330.2 454.9 329.8 C 455 330.2 454.8 330.6 454.4 330.8 z" stroke-linecap="round"/><path style="stroke: none; stroke-width: 1; stroke-dasharray: none; stroke-linecap: butt; stroke-dashoffset: 0; stroke-linejoin: miter; stroke-miterlimit: 4; fill: rgb(103,115,50); fill-rule: nonzero; opacity: 1;" vector-effect="non-scaling-stroke" transform="matrix(0.9074075222015381, 0, 0, 0.9074075222015381, 309.9710998535156, 238.46063232421875)" d="M 409.5 328.2 C 409.6 328.8 410.1 329.3 410.8 329.3 L 416 329.5 L 416.9 323.3 C 417 322.90000000000003 417.4 322.6 417.79999999999995 322.8 L 420.29999999999995 323.8 L 421.79999999999995 329.1 C 421.9 329.40000000000003 422.19999999999993 329.6 422.49999999999994 329.6 L 428.49999999999994 329.5 C 428.79999999999995 329.5 429.09999999999997 329.3 429.09999999999997 329 L 430.29999999999995 324.3 C 430.4 324 430.69999999999993 323.8 430.99999999999994 323.8 L 432.59999999999997 323.8 C 432.9 323.8 433.2 324 433.29999999999995 324.3 L 434.29999999999995 328.90000000000003 C 434.4 329.20000000000005 434.59999999999997 329.40000000000003 434.99999999999994 329.40000000000003 L 441.3999999999999 329.40000000000003 C 441.69999999999993 329.40000000000003 441.99999999999994 329.20000000000005 442.0999999999999 328.90000000000003 L 443.19999999999993 323.70000000000005 L 446.0999999999999 323.00000000000006 C 446.4999999999999 322.90000000000003 446.8999999999999 323.20000000000005 446.8999999999999 323.6000000000001 L 447.69999999999993 329.4000000000001 L 452.79999999999995 328.9000000000001 C 453.4 328.80000000000007 453.79999999999995 328.4000000000001 453.99999999999994 327.9000000000001 L 454.3999999999999 326.4000000000001 L 448.2999999999999 295.80000000000007 L 415.4999999999999 295.80000000000007 L 408.6999999999999 329.50000000000006 L 409.2999999999999 326.50000000000006 L 409.5 328.2 z" stroke-linecap="round"/><path d="M -1.100000023841858 -3.1500000953674316 L -1.7000000476837158 3.1500000953674316 L 1.7000000476837158 3.1500000953674316 L 0.6000000238418579 -3.1500000953674316 Z" style="stroke: none; stroke-width: 1; stroke-dasharray: none; stroke-linecap: butt; stroke-dashoffset: 0; stroke-linejoin: miter; stroke-miterlimit: 4; fill: rgb(103,115,50); fill-rule: nonzero; opacity: 1;" vector-effect="non-scaling-stroke" transform="matrix(0.9074075222015381, 0, 0, 0.9074075222015381, 690.1748046875, 536.044921875)"/><path d="M -0.550000011920929 -3.1500000953674316 L -1.6500000953674316 3.1500000953674316 L 1.6500000953674316 3.1500000953674316 L 0.550000011920929 -3.1500000953674316 Z" style="stroke: none; stroke-width: 1; stroke-dasharray: none; stroke-linecap: butt; stroke-dashoffset: 0; stroke-linejoin: miter; stroke-miterlimit: 4; fill: rgb(103,115,50); fill-rule: nonzero; opacity: 1;" vector-effect="non-scaling-stroke" transform="matrix(0.9074075222015381, 0, 0, 0.9074075222015381, 701.8350219726562, 536.044921875)"/><path d="M -0.6000000238418579 -3.1500000953674316 L -1.7000000476837158 3.1500000953674316 L 1.7000000476837158 3.1500000953674316 L 1.2000000476837158 -3.1500000953674316 Z" style="stroke: none; stroke-width: 1; stroke-dasharray: none; stroke-linecap: butt; stroke-dashoffset: 0; stroke-linejoin: miter; stroke-miterlimit: 4; fill: rgb(103,115,50); fill-rule: nonzero; opacity: 1;" vector-effect="non-scaling-stroke" transform="matrix(0.9074075222015381, 0, 0, 0.9074075222015381, 713.313720703125, 536.044921875)"/><path d="M -38.599998474121094 -19.950000762939453 L -45.70000076293945 15.25 L 0 32.849998474121094 L 45.70000076293945 15.25 L 38.599998474121094 -19.950000762939453 L 0 -32.849998474121094 Z" style="stroke: none; stroke-width: 1; stroke-dasharray: none; stroke-linecap: butt; stroke-dashoffset: 0; stroke-linejoin: miter; stroke-miterlimit: 4; fill: rgb(103,115,50); fill-rule: nonzero; opacity: 1;" vector-effect="non-scaling-stroke" transform="matrix(0.9074075222015381, 0, 0, 0.9074075222015381, 701.7896118164062, 490.1301574707031)"/><path style="stroke: none; stroke-width: 1; stroke-dasharray: none; stroke-linecap: butt; stroke-dashoffset: 0; stroke-linejoin: miter; stroke-miterlimit: 4; fill: rgb(103,115,50); fill-rule: nonzero; opacity: 1;" vector-effect="non-scaling-stroke" transform="matrix(0.9074075222015381, 0, 0, 0.9074075222015381, 309.9801940917969, 238.4606475830078)" d="M 472 322 L 444 317.4 C 440.3 316.79999999999995 437.7 313.2 438.4 309.5 L 443.7 279.1 C 444.59999999999997 274.1 450.3 271.8 454.4 274.70000000000005 L 479.7 292.6 C 481.3 293.8 482.4 295.6 482.59999999999997 297.5 L 482.9 300.9 C 483.29999999999995 305.09999999999997 482.7 309.4 481.2 313.4 L 479.5 317.7 C 478.3 320.7 475.2 322.5 472 322 z" stroke-linecap="round"/><path style="stroke: none; stroke-width: 1; stroke-dasharray: none; stroke-linecap: butt; stroke-dashoffset: 0; stroke-linejoin: miter; stroke-miterlimit: 4; fill: rgb(68,77,34); fill-rule: nonzero; opacity: 1;" vector-effect="non-scaling-stroke" transform="matrix(0.9074075222015381, 0, 0, 0.9074075222015381, 309.9710998535156, 238.45155334472656)" d="M 473.1 318 L 460.3 315.9 C 459.6 315.79999999999995 459.5 314.7 460.3 314.59999999999997 L 469.6 312.49999999999994 C 471 312.19999999999993 472.20000000000005 311.29999999999995 472.8 309.99999999999994 L 478.5 298.59999999999997 C 478.8 297.99999999999994 479.7 298.2 479.8 298.79999999999995 L 480.2 302.49999999999994 C 480.3 303.59999999999997 480.2 304.59999999999997 479.8 305.59999999999997 L 475.5 316.7 C 475 317.6 474 318.2 473.1 318 z" stroke-linecap="round"/><path style="stroke: none; stroke-width: 1; stroke-dasharray: none; stroke-linecap: butt; stroke-dashoffset: 0; stroke-linejoin: miter; stroke-miterlimit: 4; fill: rgb(103,115,50); fill-rule: nonzero; opacity: 1;" vector-effect="non-scaling-stroke" transform="matrix(0.9074075222015381, 0, 0, 0.9074075222015381, 309.9710998535156, 238.46067810058594)" d="M 419.2 317.3 L 391.2 321.90000000000003 C 388 322.40000000000003 384.9 320.6 383.7 317.6 L 382 313.3 C 380.5 309.3 379.9 305 380.3 300.8 L 380.6 297.40000000000003 C 380.8 295.40000000000003 381.8 293.6 383.5 292.50000000000006 L 408.8 274.6000000000001 C 412.90000000000003 271.7000000000001 418.6 274.1000000000001 419.5 279.00000000000006 L 424.8 309.40000000000003 C 425.5 313.2 423 316.7 419.2 317.3 z" stroke-linecap="round"/><path d="M -0.6000000238418579 -3.9000000953674316 L 0.5 -3.9000000953674316 L 1.9000000953674316 3.9000000953674316 L -1.9000000953674316 3.9000000953674316 Z" style="stroke: none; stroke-width: 1; stroke-dasharray: none; stroke-linecap: butt; stroke-dashoffset: 0; stroke-linejoin: miter; stroke-miterlimit: 4; fill: rgb(0,0,0); fill-rule: nonzero; opacity: 1;" vector-effect="non-scaling-stroke" transform="matrix(0.9074075222015381, 0, 0, 0.9074075222015381, 701.7896118164062, 536.7254638671875)"/><path d="M -1.9000000953674316 -3.9000000953674316 L 1.9000000953674316 -3.9000000953674316 L 0.5 3.9000000953674316 L -1.2000000476837158 3.9000000953674316 Z" style="stroke: none; stroke-width: 1; stroke-dasharray: none; stroke-linecap: butt; stroke-dashoffset: 0; stroke-linejoin: miter; stroke-miterlimit: 4; fill: rgb(0,0,0); fill-rule: nonzero; opacity: 1;" vector-effect="non-scaling-stroke" transform="matrix(0.9074075222015381, 0, 0, 0.9074075222015381, 694.8026123046875, 548.884765625)"/><path d="M -0.6000000238418579 -3.9000000953674316 L 1.2000000476837158 -3.9000000953674316 L 1.9000000953674316 3.9000000953674316 L -1.9000000953674316 3.9000000953674316 Z" style="stroke: none; stroke-width: 1; stroke-dasharray: none; stroke-linecap: butt; stroke-dashoffset: 0; stroke-linejoin: miter; stroke-miterlimit: 4; fill: rgb(0,0,0); fill-rule: nonzero; opacity: 1;" vector-effect="non-scaling-stroke" transform="matrix(0.9074075222015381, 0, 0, 0.9074075222015381, 713.313720703125, 536.7254638671875)"/><path d="M -1.9000000953674316 -3.9000000953674316 L 1.9000000953674316 -3.9000000953674316 L 1.2000000476837158 3.9000000953674316 L -0.5 3.9000000953674316 Z" style="stroke: none; stroke-width: 1; stroke-dasharray: none; stroke-linecap: butt; stroke-dashoffset: 0; stroke-linejoin: miter; stroke-miterlimit: 4; fill: rgb(0,0,0); fill-rule: nonzero; opacity: 1;" vector-effect="non-scaling-stroke" transform="matrix(0.9074075222015381, 0, 0, 0.9074075222015381, 708.5044555664062, 548.884765625)"/><path d="M -1.2000000476837158 -3.9000000953674316 L 0.5 -3.9000000953674316 L 1.9000000953674316 3.9000000953674316 L -1.9000000953674316 3.9000000953674316 Z" style="stroke: none; stroke-width: 1; stroke-dasharray: none; stroke-linecap: butt; stroke-dashoffset: 0; stroke-linejoin: miter; stroke-miterlimit: 4; fill: rgb(0,0,0); fill-rule: nonzero; opacity: 1;" vector-effect="non-scaling-stroke" transform="matrix(0.9074075222015381, 0, 0, 0.9074075222015381, 690.265625, 536.7254638671875)"/><path style="stroke: none; stroke-width: 1; stroke-dasharray: none; stroke-linecap: butt; stroke-dashoffset: 0; stroke-linejoin: miter; stroke-miterlimit: 4; fill: rgb(0,0,0); fill-rule: nonzero; opacity: 1;" vector-effect="non-scaling-stroke" transform="matrix(0.9074075222015381, 0, 0, 0.9074075222015381, 309.97113037109375, 238.4515380859375)" d="M 425.1 310 L 430.40000000000003 300.8 C 430.90000000000003 299.90000000000003 432.20000000000005 299.90000000000003 432.8 300.8 L 438.1 310 C 438.70000000000005 311.1 437.6 312.4 436.40000000000003 312 L 432.50000000000006 310.6 C 431.90000000000003 310.40000000000003 431.20000000000005 310.40000000000003 430.6000000000001 310.6 L 426.7000000000001 312 C 425.6 312.4 424.5 311.1 425.1 310 z" stroke-linecap="round"/><path style="stroke: none; stroke-width: 1; stroke-dasharray: none; stroke-linecap: butt; stroke-dashoffset: 0; stroke-linejoin: miter; stroke-miterlimit: 4; fill: rgb(68,77,34); fill-rule: nonzero; opacity: 1;" vector-effect="non-scaling-stroke" transform="matrix(0.9074075222015381, 0, 0, 0.9074075222015381, 309.9710693359375, 238.46063232421875)" d="M 474.5 272.6 L 473 268.5 C 470.1 260.7 466 254.4 456.3 252.2 L 431.6 243.79999999999998 L 406.90000000000003 251.49999999999997 C 399.20000000000005 254.59999999999997 393.1 260.79999999999995 390.20000000000005 268.59999999999997 L 388.90000000000003 271.99999999999994 L 394.3 267.69999999999993 C 404.1 259.99999999999994 415.8 255.29999999999993 428.2 254.09999999999994 L 428.2 254.09999999999994 L 432.5 253.29999999999993 L 442.3 264.29999999999995 L 443.5 264.29999999999995 C 451.5 264.29999999999995 459.5 265.99999999999994 466.8 269.29999999999995 L 474.5 272.6 z" stroke-linecap="round"/><path d="M 0.4000000059604645 -18.950000762939453 L -13.100000381469727 -0.550000011920929 L -0.10000000149011612 -4.050000190734863 L -11.800000190734863 18.950000762939453 L -8.699999809265137 17.25 L 13.100000381469727 -13.850000381469727 L 4.599999904632568 -13.649999618530273 L 7.400000095367432 -17.25 Z" style="stroke: none; stroke-width: 1; stroke-dasharray: none; stroke-linecap: butt; stroke-dashoffset: 0; stroke-linejoin: miter; stroke-miterlimit: 4; fill: rgb(68,77,34); fill-rule: nonzero; opacity: 1;" vector-effect="non-scaling-stroke" transform="matrix(0.9074075222015381, 0, 0, 0.9074075222015381, 709.8656005859375, 481.781982421875)"/><path d="M 0.800000011920929 -26.649999618530273 L -12.399999618530273 8.75 L 0.699999988079071 5.25 L -5.900000095367432 26.649999618530273 L -3 25.049999237060547 L 12.399999618530273 -4.150000095367432 L 3.200000047683716 -3.75 L 12 -17.75 Z" style="stroke: none; stroke-width: 1; stroke-dasharray: none; stroke-linecap: butt; stroke-dashoffset: 0; stroke-linejoin: miter; stroke-miterlimit: 4; fill: rgb(227,190,23); fill-rule: nonzero; opacity: 1;" vector-effect="non-scaling-stroke" transform="matrix(0.9074075222015381, 0, 0, 0.9074075222015381, 704.5118408203125, 474.7949523925781)"/><path d="M 5.849999904632568 -14.600000381469727 L -7.949999809265137 14.699999809265137 L -7.449999809265137 14.5 L 7.949999809265137 -14.699999809265137 Z" style="stroke: none; stroke-width: 1; stroke-dasharray: none; stroke-linecap: butt; stroke-dashoffset: 0; stroke-linejoin: miter; stroke-miterlimit: 4; fill: rgb(191,152,46); fill-rule: nonzero; opacity: 1;" vector-effect="non-scaling-stroke" transform="matrix(0.9074075222015381, 0, 0, 0.9074075222015381, 708.5498046875, 484.36810302734375)"/><path d="M 3.799999952316284 -7.650000095367432 L -5.300000190734863 7.650000095367432 L -3.5 7.449999809265137 L 5.300000190734863 -6.550000190734863 Z" style="stroke: none; stroke-width: 1; stroke-dasharray: none; stroke-linecap: butt; stroke-dashoffset: 0; stroke-linejoin: miter; stroke-miterlimit: 4; fill: rgb(191,152,46); fill-rule: nonzero; opacity: 1;" vector-effect="non-scaling-stroke" transform="matrix(0.9074075222015381, 0, 0, 0.9074075222015381, 710.5914916992188, 464.6319885253906)"/><path style="stroke: none; stroke-width: 1; stroke-dasharray: none; stroke-linecap: butt; stroke-dashoffset: 0; stroke-linejoin: miter; stroke-miterlimit: 4; fill: rgb(68,77,34); fill-rule: nonzero; opacity: 1;" vector-effect="non-scaling-stroke" transform="matrix(0.9074075222015381, 0, 0, 0.9074075222015381, 309.9710998535156, 238.46066284179688)" d="M 469.9 277.4 C 472.29999999999995 301.59999999999997 453.2 302.9 442.2 297.29999999999995 C 454.5 305.9 473.6 307.6 469.9 277.4 z" stroke-linecap="round"/><path style="stroke: none; stroke-width: 1; stroke-dasharray: none; stroke-linecap: butt; stroke-dashoffset: 0; stroke-linejoin: miter; stroke-miterlimit: 4; fill: rgb(0,0,0); fill-rule: nonzero; opacity: 1;" vector-effect="non-scaling-stroke" transform="matrix(0.9074075222015381, 0, 0, 0.9074075222015381, 309.9710998535156, 238.46066284179688)" d="M 469.9 277.4 C 469.9 277.4 466.9 281.7 455 285.79999999999995 C 456.1 286.59999999999997 456.7 287.9 456.7 289.4 C 456.59999999999997 291.79999999999995 454.59999999999997 293.7 452.09999999999997 293.7 C 449.7 293.59999999999997 447.79999999999995 291.59999999999997 447.79999999999995 289.09999999999997 C 447.79999999999995 288.7 447.9 288.29999999999995 447.99999999999994 287.9 C 444.29999999999995 288.9 439.99999999999994 289.79999999999995 435.09999999999997 290.59999999999997 C 439.3 301.6 473.1 309 469.9 277.4 z" stroke-linecap="round"/><path style="stroke: none; stroke-width: 1; stroke-dasharray: none; stroke-linecap: butt; stroke-dashoffset: 0; stroke-linejoin: miter; stroke-miterlimit: 4; fill: rgb(227,190,23); fill-rule: nonzero; opacity: 1;" vector-effect="non-scaling-stroke" transform="matrix(0.9074075222015381, 0, 0, 0.9074075222015381, 309.9710998535156, 238.46063232421875)" d="M 447.9 289.1 C 447.79999999999995 291.5 449.7 293.6 452.2 293.70000000000005 C 454.59999999999997 293.80000000000007 456.7 291.90000000000003 456.8 289.40000000000003 C 456.8 287.90000000000003 456.2 286.6 455.1 285.8 C 453.3 286.5 451 287.2 448.20000000000005 287.90000000000003 C 447.9 288.2 447.9 288.6 447.9 289.1 z" stroke-linecap="round"/><path style="stroke: none; stroke-width: 1; stroke-dasharray: none; stroke-linecap: butt; stroke-dashoffset: 0; stroke-linejoin: miter; stroke-miterlimit: 4; fill: rgb(68,77,34); fill-rule: nonzero; opacity: 1;" vector-effect="non-scaling-stroke" transform="matrix(0.9074075222015381, 0, 0, 0.9074075222015381, 309.9710998535156, 238.46066284179688)" d="M 393.2 277.4 C 390.8 301.59999999999997 409.9 302.9 420.9 297.29999999999995 C 408.7 305.9 389.5 307.6 393.2 277.4 z" stroke-linecap="round"/><path style="stroke: none; stroke-width: 1; stroke-dasharray: none; stroke-linecap: butt; stroke-dashoffset: 0; stroke-linejoin: miter; stroke-miterlimit: 4; fill: rgb(0,0,0); fill-rule: nonzero; opacity: 1;" vector-effect="non-scaling-stroke" transform="matrix(0.9074075222015381, 0, 0, 0.9074075222015381, 309.9801330566406, 238.46066284179688)" d="M 393.2 277.4 C 393.2 277.4 396.2 281.7 408.09999999999997 285.79999999999995 C 406.99999999999994 286.59999999999997 406.4 287.9 406.4 289.4 C 406.5 291.79999999999995 408.5 293.7 411 293.7 C 413.4 293.59999999999997 415.3 291.59999999999997 415.3 289.09999999999997 C 415.3 288.7 415.2 288.29999999999995 415.1 287.9 C 418.8 288.9 423.1 289.79999999999995 428 290.59999999999997 C 423.8 301.6 390 309 393.2 277.4 z" stroke-linecap="round"/><path style="stroke: none; stroke-width: 1; stroke-dasharray: none; stroke-linecap: butt; stroke-dashoffset: 0; stroke-linejoin: miter; stroke-miterlimit: 4; fill: rgb(227,190,23); fill-rule: nonzero; opacity: 1;" vector-effect="non-scaling-stroke" transform="matrix(0.9074075222015381, 0, 0, 0.9074075222015381, 309.9710998535156, 238.46063232421875)" d="M 415.3 289.1 C 415.40000000000003 291.5 413.5 293.6 411 293.70000000000005 C 408.6 293.80000000000007 406.5 291.90000000000003 406.4 289.40000000000003 C 406.4 287.90000000000003 407 286.6 408.09999999999997 285.8 C 409.9 286.5 412.2 287.2 414.99999999999994 287.90000000000003 C 415.2 288.2 415.3 288.6 415.3 289.1 z" stroke-linecap="round"/><path style="stroke: none; stroke-width: 1; stroke-dasharray: none; stroke-linecap: butt; stroke-dashoffset: 0; stroke-linejoin: miter; stroke-miterlimit: 4; fill: rgb(68,77,34); fill-rule: nonzero; opacity: 1;" vector-effect="non-scaling-stroke" transform="matrix(0.9074075222015381, 0, 0, 0.9074075222015381, 309.97113037109375, 238.45159912109375)" d="M 424.6 285.2 C 412.90000000000003 275.8 408.6 263.59999999999997 383.20000000000005 269.4 C 383.20000000000005 269.4 383.70000000000005 271.2 384.00000000000006 273.79999999999995 C 400.2 265.1 409.2 277.4 424.6 285.2 z" stroke-linecap="round"/><path style="stroke: none; stroke-width: 1; stroke-dasharray: none; stroke-linecap: butt; stroke-dashoffset: 0; stroke-linejoin: miter; stroke-miterlimit: 4; fill: rgb(0,0,0); fill-rule: nonzero; opacity: 1;" vector-effect="non-scaling-stroke" transform="matrix(0.9074075222015381, 0, 0, 0.9074075222015381, 309.9710693359375, 238.45159912109375)" d="M 424.6 285.2 C 410.70000000000005 282.3 401.70000000000005 266.9 384.1 278.4 C 384.1 274.59999999999997 383.70000000000005 273.9 383.70000000000005 273.9 C 400.1 265 409.1 277.4 424.6 285.2 z" stroke-linecap="round"/><path style="stroke: none; stroke-width: 1; stroke-dasharray: none; stroke-linecap: butt; stroke-dashoffset: 0; stroke-linejoin: miter; stroke-miterlimit: 4; fill: rgb(68,77,34); fill-rule: nonzero; opacity: 1;" vector-effect="non-scaling-stroke" transform="matrix(0.9074075222015381, 0, 0, 0.9074075222015381, 309.9710693359375, 238.46066284179688)" d="M 478.6 273.6 C 478.90000000000003 271.1 479.40000000000003 269.40000000000003 479.40000000000003 269.40000000000003 C 454.00000000000006 263.6 449.70000000000005 275.90000000000003 438.00000000000006 285.20000000000005 C 438.30000000000007 285.1 438.50000000000006 285.00000000000006 438.80000000000007 284.90000000000003 C 453.7 277.2 462.7 265.3 478.6 273.6 z" stroke-linecap="round"/><path style="stroke: none; stroke-width: 1; stroke-dasharray: none; stroke-linecap: butt; stroke-dashoffset: 0; stroke-linejoin: miter; stroke-miterlimit: 4; fill: rgb(68,77,34); fill-rule: nonzero; opacity: 1;" vector-effect="non-scaling-stroke" transform="matrix(0.9074075222015381, 0, 0, 0.9074075222015381, 309.98016357421875, 238.45155334472656)" d="M 390.1 318 L 402.90000000000003 315.9 C 403.6 315.79999999999995 403.70000000000005 314.7 402.90000000000003 314.59999999999997 L 393.6 312.49999999999994 C 392.20000000000005 312.19999999999993 391 311.29999999999995 390.40000000000003 309.99999999999994 L 384.70000000000005 298.59999999999997 C 384.40000000000003 297.99999999999994 383.50000000000006 298.2 383.40000000000003 298.79999999999995 L 383.00000000000006 302.49999999999994 C 382.90000000000003 303.59999999999997 383.00000000000006 304.59999999999997 383.40000000000003 305.59999999999997 L 387.70000000000005 316.7 C 388.2 317.6 389.1 318.2 390.1 318 z" stroke-linecap="round"/><path style="stroke: none; stroke-width: 1; stroke-dasharray: none; stroke-linecap: butt; stroke-dashoffset: 0; stroke-linejoin: miter; stroke-miterlimit: 4; fill: rgb(68,77,34); fill-rule: nonzero; opacity: 1;" vector-effect="non-scaling-stroke" transform="matrix(0.9074075222015381, 0, 0, 0.9074075222015381, 309.9710998535156, 238.4606475830078)" d="M 415.2 349 L 411 343.2 C 410.3 342.3 411 341 412.1 341 L 422.40000000000003 341 L 422.8 346 L 424.6 346 L 425.5 341 L 437.8 341 L 438.7 346 L 440.5 346 L 440.9 341 L 451.2 341 C 452.3 341 453 342.3 452.3 343.2 L 448.8 348.09999999999997 L 449.1 345.4 C 449.20000000000005 344.4 448.40000000000003 343.59999999999997 447.5 343.7 L 442.8 344.09999999999997 C 442.3 344.09999999999997 441.90000000000003 344.4 441.7 344.9 L 440.59999999999997 347.2 C 440.49999999999994 347.4 440.4 347.5 440.2 347.5 L 439.4 347.8 C 439 347.90000000000003 438.59999999999997 347.8 438.5 347.40000000000003 L 437.3 344.00000000000006 C 437.1 343.50000000000006 436.6 343.20000000000005 436 343.20000000000005 L 427.5 343.30000000000007 C 427 343.30000000000007 426.5 343.6000000000001 426.3 344.1000000000001 L 424.90000000000003 347.6000000000001 C 424.8 347.9000000000001 424.40000000000003 348.1000000000001 424.00000000000006 348.00000000000006 L 423.1000000000001 347.70000000000005 C 422.9000000000001 347.6 422.80000000000007 347.50000000000006 422.7000000000001 347.40000000000003 L 421.6000000000001 345.20000000000005 C 421.4000000000001 344.80000000000007 421.00000000000006 344.50000000000006 420.6000000000001 344.50000000000006 L 415.9000000000001 343.90000000000003 C 414.80000000000007 343.8 413.9000000000001 344.8 414.2000000000001 345.8 L 415.2 349 z" stroke-linecap="round"/><path d="M 1.75 2.6500000953674316 L -1.75 -4.349999904632568 L -0.05000000447034836 4.349999904632568 Z" style="stroke: none; stroke-width: 1; stroke-dasharray: none; stroke-linecap: butt; stroke-dashoffset: 0; stroke-linejoin: miter; stroke-miterlimit: 4; fill: rgb(0,0,0); fill-rule: nonzero; opacity: 1;" vector-effect="non-scaling-stroke" transform="matrix(0.9074075222015381, 0, 0, 0.9074075222015381, 721.2535400390625, 525.6097412109375)"/><path d="M -1.75 2.6500000953674316 L 1.75 -4.349999904632568 L 0.05000000447034836 4.349999904632568 Z" style="stroke: none; stroke-width: 1; stroke-dasharray: none; stroke-linecap: butt; stroke-dashoffset: 0; stroke-linejoin: miter; stroke-miterlimit: 4; fill: rgb(0,0,0); fill-rule: nonzero; opacity: 1;" vector-effect="non-scaling-stroke" transform="matrix(0.9074075222015381, 0, 0, 0.9074075222015381, 682.3258056640625, 525.6097412109375)"/><path style="stroke: none; stroke-width: 1; stroke-dasharray: none; stroke-linecap: butt; stroke-dashoffset: 0; stroke-linejoin: miter; stroke-miterlimit: 4; fill: rgb(0,0,0); fill-rule: nonzero; opacity: 1;" vector-effect="non-scaling-stroke" transform="matrix(0.9074075222015381, 0, 0, 0.9074075222015381, 309.9710693359375, 238.46067810058594)" d="M 476.9 290 C 476.9 290 477.09999999999997 292.6 474.4 295.7 C 476.4 294.2 477.5 292.5 478.29999999999995 291.4 L 476.9 290 z" stroke-linecap="round"/><path style="stroke: none; stroke-width: 1; stroke-dasharray: none; stroke-linecap: butt; stroke-dashoffset: 0; stroke-linejoin: miter; stroke-miterlimit: 4; fill: rgb(0,0,0); fill-rule: nonzero; opacity: 1;" vector-effect="non-scaling-stroke" transform="matrix(0.9074075222015381, 0, 0, 0.9074075222015381, 309.9710693359375, 238.46063232421875)" d="M 386.7 289.6 C 386.7 289.6 386.5 292.20000000000005 389.2 295.3 C 387.3 293.90000000000003 386.2 292.3 385.5 291.2 L 386.7 289.6 z" stroke-linecap="round"/><path style="stroke: none; stroke-width: 1; stroke-dasharray: none; stroke-linecap: butt; stroke-dashoffset: 0; stroke-linejoin: miter; stroke-miterlimit: 4; fill: rgb(68,77,34); fill-rule: nonzero; opacity: 1;" vector-effect="non-scaling-stroke" transform="matrix(0.9074075222015381, 0, 0, 0.9074075222015381, 309.98016357421875, 238.4515838623047)" d="M 454.3 326.4 L 454.90000000000003 329.5 C 455.1 330.3 454.40000000000003 331.1 453.6 331.1 L 446.3 331.1 L 445.8 324.8 L 444 324.8 L 442.9 331.1 L 433.5 331.1 L 432.4 324.8 L 431.29999999999995 324.8 L 430.19999999999993 331.1 L 420.69999999999993 331.1 L 419.5999999999999 324.8 L 417.7999999999999 324.8 L 417.2999999999999 331.1 L 410 331.1 C 409.1 331.1 408.5 330.3 408.7 329.5 L 409.3 326.5 L 409.6 328.2 C 409.70000000000005 328.8 410.20000000000005 329.3 410.90000000000003 329.3 L 416.1 329.5 L 417 323.3 C 417.1 322.90000000000003 417.5 322.6 417.9 322.8 L 420.4 323.8 L 421.9 329.1 C 422 329.40000000000003 422.29999999999995 329.6 422.59999999999997 329.6 L 428.59999999999997 329.5 C 428.9 329.5 429.2 329.3 429.2 329 L 430.4 324.3 C 430.5 324 430.79999999999995 323.8 431.09999999999997 323.8 L 432.7 323.8 C 433 323.8 433.3 324 433.4 324.3 L 434.4 328.90000000000003 C 434.5 329.20000000000005 434.7 329.40000000000003 435.09999999999997 329.40000000000003 L 441.49999999999994 329.40000000000003 C 441.79999999999995 329.40000000000003 442.09999999999997 329.20000000000005 442.19999999999993 328.90000000000003 L 443.29999999999995 323.70000000000005 L 446.19999999999993 323.00000000000006 C 446.5999999999999 322.90000000000003 446.99999999999994 323.20000000000005 446.99999999999994 323.6000000000001 L 447.79999999999995 329.4000000000001 L 452.9 328.9000000000001 C 453.5 328.80000000000007 453.9 328.4000000000001 454.09999999999997 327.9000000000001 L 454.3 326.4 z" stroke-linecap="round"/><path style="stroke: none; stroke-width: 1; stroke-dasharray: none; stroke-linecap: butt; stroke-dashoffset: 0; stroke-linejoin: miter; stroke-miterlimit: 4; fill: rgb(0,0,0); fill-rule: nonzero; opacity: 1;" vector-effect="non-scaling-stroke" transform="matrix(0.9074075222015381, 0, 0, 0.9074075222015381, 309.9710998535156, 238.45159912109375)" d="M 438.2 285.2 C 452.09999999999997 282.3 461.09999999999997 266.9 478.7 278.4 C 478.7 274.59999999999997 479.09999999999997 273.9 479.09999999999997 273.9 C 462.7 265 453.7 277.4 438.2 285.2 z" stroke-linecap="round"/><path style="stroke: none; stroke-width: 1; stroke-dasharray: none; stroke-linecap: butt; stroke-dashoffset: 0; stroke-linejoin: miter; stroke-miterlimit: 4; fill: rgb(64,64,65); fill-rule: nonzero; opacity: 1;" vector-effect="non-scaling-stroke" transform="matrix(0.9074075222015381, 0, 0, 0.9074075222015381, 309.9710998535156, 238.45159912109375)" d="M 386 289.4 L 393.7 268.79999999999995 C 396.3 261.79999999999995 400.7 255.69999999999996 406.5 251.09999999999997 L 427.7 236.89999999999998 C 430 235.39999999999998 432.9 235.39999999999998 435.2 236.89999999999998 L 457.09999999999997 251.2 C 462.9 255.79999999999998 467.29999999999995 262 469.9 268.9 L 477.29999999999995 288.79999999999995 L 489.59999999999997 284.19999999999993 L 472.59999999999997 243.79999999999993 L 435.7 219.69999999999993 C 433.09999999999997 217.99999999999994 429.7 218.29999999999993 427.4 220.29999999999993 L 384.5 258.19999999999993 L 373.1 285.49999999999994 L 386 289.4 z" stroke-linecap="round"/><path style="stroke: none; stroke-width: 1; stroke-dasharray: none; stroke-linecap: butt; stroke-dashoffset: 0; stroke-linejoin: miter; stroke-miterlimit: 4; fill: rgb(109,110,112); fill-rule: nonzero; opacity: 1;" vector-effect="non-scaling-stroke" transform="matrix(0.9074075222015381, 0, 0, 0.9074075222015381, 309.9710693359375, 238.4515838623047)" d="M 374.5 252.9 L 372.1 275.8 L 358.90000000000003 315.1 C 358.00000000000006 317.8 358.8 320.70000000000005 361.00000000000006 322.5 L 364.20000000000005 325.2 L 396.50000000000006 356.3 L 369.2 322 C 367.7 320.1 367.3 317.5 368.2 315.2 L 389.59999999999997 261.9 C 390.59999999999997 259.4 392.09999999999997 257.09999999999997 393.99999999999994 255.2 L 427.99999999999994 220.29999999999998 C 430.09999999999997 218.2 433.29999999999995 217.6 435.99999999999994 218.99999999999997 L 471.79999999999995 236.99999999999997 L 435.99999999999994 209.69999999999996 C 433.49999999999994 207.79999999999995 430.19999999999993 207.79999999999995 427.69999999999993 209.69999999999996 L 377.19999999999993 248.19999999999996 C 375.7 249.3 374.7 251 374.5 252.9 z" stroke-linecap="round"/><path d="M -9.399999618530273 17.25 L 9.399999618530273 -17.25 L -9.399999618530273 8.75 Z" style="stroke: none; stroke-width: 1; stroke-dasharray: none; stroke-linecap: butt; stroke-dashoffset: 0; stroke-linejoin: miter; stroke-miterlimit: 4; fill: rgb(0,0,0); fill-rule: nonzero; opacity: 1;" vector-effect="non-scaling-stroke" transform="matrix(0.9074075222015381, 0, 0, 0.9074075222015381, 650.430419921875, 488.40606689453125)"/><path d="M -0.4000000059604645 -32.25 L 10.399999618530273 -24.25 L 23.899999618530273 39.54999923706055 L -0.800000011920929 -19.049999237060547 L -23.899999618530273 -39.54999923706055 Z" style="stroke: none; stroke-width: 1; stroke-dasharray: none; stroke-linecap: butt; stroke-dashoffset: 0; stroke-linejoin: miter; stroke-miterlimit: 4; fill: rgb(29,29,29); fill-rule: nonzero; opacity: 1;" vector-effect="non-scaling-stroke" transform="matrix(0.9074075222015381, 0, 0, 0.9074075222015381, 743.8026733398438, 486.9542236328125)"/><path d="M 11.25 -5.75 L -11.25 5.75 L 11.25 -1.850000023841858 Z" style="stroke: none; stroke-width: 1; stroke-dasharray: none; stroke-linecap: butt; stroke-dashoffset: 0; stroke-linejoin: miter; stroke-miterlimit: 4; fill: rgb(0,0,0); fill-rule: nonzero; opacity: 1;" vector-effect="non-scaling-stroke" transform="matrix(0.9074075222015381, 0, 0, 0.9074075222015381, 753.2850341796875, 538.4042358398438)"/><path style="stroke: none; stroke-width: 1; stroke-dasharray: none; stroke-linecap: butt; stroke-dashoffset: 0; stroke-linejoin: miter; stroke-miterlimit: 4; fill: rgb(39,39,39); fill-rule: nonzero; opacity: 1;" vector-effect="non-scaling-stroke" transform="matrix(0.9074075222015381, 0, 0, 0.9074075222015381, 309.9710693359375, 238.4606170654297)" d="M 493.6 330.8 L 439.90000000000003 382.7 L 435.70000000000005 384.5 C 433.1 385.6 430.00000000000006 385 428.00000000000006 382.9 L 421.90000000000003 376.5 L 428.1 377.9 C 430.1 378.4 432.20000000000005 377.9 433.8 376.7 L 493.6 330.8 z" stroke-linecap="round"/><path style="stroke: none; stroke-width: 1; stroke-dasharray: none; stroke-linecap: butt; stroke-dashoffset: 0; stroke-linejoin: miter; stroke-miterlimit: 4; fill: rgb(0,0,0); fill-rule: nonzero; opacity: 1;" vector-effect="non-scaling-stroke" transform="matrix(0.9074075222015381, 0, 0, 0.9074075222015381, 309.9710693359375, 238.46063232421875)" d="M 343.4 343 L 343.4 378.4 C 343.4 380.09999999999997 344.5 381.7 346.09999999999997 382.4 L 346.09999999999997 382.4 C 401.09999999999997 404.29999999999995 462.5 404.29999999999995 517.5 382.4 L 517.5 382.4 C 519.1 381.79999999999995 520.2 380.2 520.2 378.4 L 520.2 343 C 520.2 340.7 518.3000000000001 338.7 515.9000000000001 338.7 L 496.2000000000001 338.7 L 347.6 338.7 C 345.3 338.7 343.4 340.6 343.4 343 z" stroke-linecap="round"/><path style="stroke: none; stroke-width: 1; stroke-dasharray: none; stroke-linecap: butt; stroke-dashoffset: 0; stroke-linejoin: miter; stroke-miterlimit: 4; fill: rgb(255,255,255); fill-rule: nonzero; opacity: 1;" vector-effect="non-scaling-stroke" transform="matrix(0.9074075222015381, 0, 0, 0.9074075222015381, 309.9710693359375, 238.4606475830078)" d="M 372.1 350.5 C 372.3 360.1 372.5 369.8 372.6 379.4 C 371.1 379 370.40000000000003 378.79999999999995 368.90000000000003 378.4 C 368.70000000000005 370 368.6 361.5 368.40000000000003 353.09999999999997 C 368.20000000000005 353.09999999999997 368.1 353.09999999999997 368.00000000000006 353.09999999999997 C 367.1000000000001 359.2 366.20000000000005 365.2 365.30000000000007 371.29999999999995 C 365.1000000000001 372.69999999999993 364.6000000000001 373.19999999999993 363.70000000000005 372.99999999999994 C 362.70000000000005 372.69999999999993 362.20000000000005 372.59999999999997 361.20000000000005 372.29999999999995 C 360.30000000000007 372.09999999999997 359.80000000000007 371.29999999999995 359.6 369.9 C 358.8 364.09999999999997 357.90000000000003 358.29999999999995 357 352.5 C 356.8 352.5 356.7 352.5 356.6 352.5 C 356.40000000000003 359.9 356.20000000000005 367.2 356.1 374.6 C 354.6 374.1 353.90000000000003 373.90000000000003 352.5 373.40000000000003 C 352.7 365.6 352.9 357.8 353.1 350.00000000000006 C 353.20000000000005 348.6000000000001 353.6 347.90000000000003 354.6 347.90000000000003 C 356.1 347.90000000000003 356.90000000000003 347.90000000000003 358.40000000000003 347.90000000000003 C 359.20000000000005 347.90000000000003 359.8 348.6 359.90000000000003 349.90000000000003 C 360.6 354.70000000000005 361.3 359.40000000000003 362.00000000000006 364.20000000000005 C 362.20000000000005 365.6 362.30000000000007 367.00000000000006 362.40000000000003 368.30000000000007 C 362.50000000000006 368.30000000000007 362.6 368.30000000000007 362.70000000000005 368.4000000000001 C 362.90000000000003 367.1000000000001 363.00000000000006 365.80000000000007 363.20000000000005 364.4000000000001 C 363.90000000000003 359.6000000000001 364.70000000000005 354.80000000000007 365.40000000000003 350.0000000000001 C 365.6 348.60000000000014 366.1 347.9000000000001 367.00000000000006 347.9000000000001 C 368.50000000000006 347.9000000000001 369.30000000000007 347.9000000000001 370.80000000000007 347.9000000000001 C 371.7 347.9 372.1 348.8 372.1 350.5 z" stroke-linecap="round"/><path style="stroke: none; stroke-width: 1; stroke-dasharray: none; stroke-linecap: butt; stroke-dashoffset: 0; stroke-linejoin: miter; stroke-miterlimit: 4; fill: rgb(255,255,255); fill-rule: nonzero; opacity: 1;" vector-effect="non-scaling-stroke" transform="matrix(0.9074075222015381, 0, 0, 0.9074075222015381, 309.9710998535156, 238.46063232421875)" d="M 387.1 376.7 C 387.20000000000005 379 387.20000000000005 380.09999999999997 387.20000000000005 382.4 C 384.80000000000007 382.4 381.70000000000005 381.79999999999995 379.00000000000006 381.2 C 376.70000000000005 380.7 375.20000000000005 377.8 375.20000000000005 373.8 C 375.20000000000005 367.3 375.30000000000007 360.8 375.30000000000007 354.3 C 375.30000000000007 350.3 376.9000000000001 347.8 379.20000000000005 347.8 C 381.90000000000003 347.8 385.00000000000006 347.8 387.40000000000003 348.3 C 387.3 350.6 387.3 351.7 387.20000000000005 354 C 384.50000000000006 353.9 383.1 353.8 380.40000000000003 353.7 C 379.6 353.7 379.20000000000005 354.4 379.20000000000005 356.09999999999997 C 379.20000000000005 358.09999999999997 379.20000000000005 359.09999999999997 379.20000000000005 361.09999999999997 C 382.00000000000006 361.4 383.40000000000003 361.49999999999994 386.20000000000005 361.7 C 386.20000000000005 363.9 386.20000000000005 365 386.20000000000005 367.2 C 383.40000000000003 366.9 382.00000000000006 366.7 379.20000000000005 366.4 C 379.20000000000005 368.9 379.20000000000005 370.2 379.20000000000005 372.79999999999995 C 379.20000000000005 374.59999999999997 379.50000000000006 375.4 380.40000000000003 375.49999999999994 C 383 376 384.4 376.2 387.1 376.7 z" stroke-linecap="round"/><path style="stroke: none; stroke-width: 1; stroke-dasharray: none; stroke-linecap: butt; stroke-dashoffset: 0; stroke-linejoin: miter; stroke-miterlimit: 4; fill: rgb(255,255,255); fill-rule: nonzero; opacity: 1;" vector-effect="non-scaling-stroke" transform="matrix(0.9074075222015381, 0, 0, 0.9074075222015381, 309.97113037109375, 238.4606475830078)" d="M 403.4 354.7 C 401.29999999999995 354.59999999999997 400.2 354.59999999999997 398.09999999999997 354.59999999999997 C 397.99999999999994 364.59999999999997 397.99999999999994 374.49999999999994 397.9 384.49999999999994 C 396.29999999999995 384.29999999999995 395.5 384.19999999999993 394 383.8999999999999 C 394.1 374.0999999999999 394.1 364.2999999999999 394.2 354.49999999999994 C 392.09999999999997 354.3999999999999 391 354.3999999999999 388.9 354.29999999999995 C 388.9 351.79999999999995 388.9 350.49999999999994 388.9 347.99999999999994 C 393.7 347.99999999999994 398.5 347.99999999999994 403.4 347.99999999999994 C 403.4 350.7 403.4 352 403.4 354.7 z" stroke-linecap="round"/><path style="stroke: none; stroke-width: 1; stroke-dasharray: none; stroke-linecap: butt; stroke-dashoffset: 0; stroke-linejoin: miter; stroke-miterlimit: 4; fill: rgb(255,255,255); fill-rule: nonzero; opacity: 1;" vector-effect="non-scaling-stroke" transform="matrix(0.9074075222015381, 0, 0, 0.9074075222015381, 309.97113037109375, 238.4606475830078)" d="M 413.4 376.2 C 411 376.09999999999997 409.7 376 407.29999999999995 375.8 C 406.79999999999995 379.7 406.49999999999994 381.7 405.99999999999994 385.5 C 404.3999999999999 385.3 403.59999999999997 385.2 401.99999999999994 385 C 403.79999999999995 373.4 405.49999999999994 361.8 407.29999999999995 350.2 C 407.49999999999994 348.8 407.99999999999994 348 408.69999999999993 348 C 410.19999999999993 348 410.8999999999999 348 412.3999999999999 348 C 413.0999999999999 348 413.5999999999999 348.8 413.69999999999993 350.2 C 415.3999999999999 362.3 416.99999999999994 374.4 418.69999999999993 386.5 C 417.0999999999999 386.4 416.29999999999995 386.4 414.69999999999993 386.2 C 414.1 382.3 413.9 380.2 413.4 376.2 z M 412.5 369.6 C 411.9 364.90000000000003 411.6 362.6 411.1 357.90000000000003 C 411 356.70000000000005 410.8 355.50000000000006 410.8 354.3 C 410.5 354.3 410.40000000000003 354.3 410.1 354.3 C 409.90000000000003 355.7 409.90000000000003 356.40000000000003 409.70000000000005 357.90000000000003 C 409.1 362.50000000000006 408.80000000000007 364.8 408.20000000000005 369.40000000000003 C 409.9 369.5 410.8 369.5 412.5 369.6 z" stroke-linecap="round"/><path style="stroke: none; stroke-width: 1; stroke-dasharray: none; stroke-linecap: butt; stroke-dashoffset: 0; stroke-linejoin: miter; stroke-miterlimit: 4; fill: rgb(255,255,255); fill-rule: nonzero; opacity: 1;" vector-effect="non-scaling-stroke" transform="matrix(0.9074075222015381, 0, 0, 0.9074075222015381, 309.9710693359375, 238.45156860351562)" d="M 432.2 348.8 C 432.09999999999997 351.1 432 352.3 431.9 354.7 C 430.4 354.59999999999997 428.2 354.5 426.4 354.5 C 424.5 354.5 423.79999999999995 354.7 423.79999999999995 358 C 423.79999999999995 360.7 424.29999999999995 361.4 425.59999999999997 362.4 C 426.9 363.4 427.59999999999997 363.9 428.99999999999994 365 C 432.29999999999995 367.7 432.69999999999993 372.7 432.69999999999993 376.4 C 432.79999999999995 380.7 431.99999999999994 387.9 426.0999999999999 387.5 C 424.9999999999999 387.4 422.69999999999993 387.2 419.9999999999999 385.8 C 420.0999999999999 383.3 420.0999999999999 382.1 420.1999999999999 379.7 C 423.4999999999999 380 424.89999999999986 380.09999999999997 426.09999999999985 380.2 C 428.1999999999999 380.2 428.6999999999999 379.59999999999997 428.6999999999999 376.5 C 428.6999999999999 373.7 428.1999999999999 373.1 426.9999999999999 372.2 C 425.5999999999999 371.09999999999997 424.89999999999986 370.5 423.39999999999986 369.4 C 420.1999999999999 366.7 419.6999999999999 361.9 419.79999999999984 358 C 419.79999999999984 353.7 420.49999999999983 347.1 426.1999999999998 347.3 C 428.1 347.4 430.2 347.6 432.2 348.8 z" stroke-linecap="round"/><path style="stroke: none; stroke-width: 1; stroke-dasharray: none; stroke-linecap: butt; stroke-dashoffset: 0; stroke-linejoin: miter; stroke-miterlimit: 4; fill: rgb(255,255,255); fill-rule: nonzero; opacity: 1;" vector-effect="non-scaling-stroke" transform="matrix(0.9074075222015381, 0, 0, 0.9074075222015381, 309.9710693359375, 238.45159912109375)" d="M 448.1 360.1 C 448.1 364.20000000000005 448.3 372.8 442.20000000000005 372.90000000000003 C 441.1 372.90000000000003 439.90000000000003 372.8 438.90000000000003 372.50000000000006 C 438.90000000000003 377.30000000000007 438.90000000000003 382.1000000000001 438.90000000000003 386.90000000000003 C 437.3 386.90000000000003 436.6 387.00000000000006 435.00000000000006 387.00000000000006 C 435.00000000000006 374.00000000000006 435.00000000000006 361.1000000000001 435.00000000000006 348.1000000000001 C 437.1000000000001 347.6000000000001 438.6000000000001 347.7000000000001 441.70000000000005 347.6000000000001 C 448 347.4 448.1 355.6 448.1 360.1 z M 444.2 360.1 C 444.2 355.3 443.59999999999997 354.1 441.59999999999997 354.1 C 440.49999999999994 354.1 439.99999999999994 354.1 438.9 354.1 C 438.9 359 438.9 361.40000000000003 438.9 366.3 C 440 366.3 440.5 366.3 441.59999999999997 366.3 C 443.6 366.2 444.2 364.9 444.2 360.1 z" stroke-linecap="round"/><path style="stroke: none; stroke-width: 1; stroke-dasharray: none; stroke-linecap: butt; stroke-dashoffset: 0; stroke-linejoin: miter; stroke-miterlimit: 4; fill: rgb(255,255,255); fill-rule: nonzero; opacity: 1;" vector-effect="non-scaling-stroke" transform="matrix(0.9074075222015381, 0, 0, 0.9074075222015381, 309.9801330566406, 238.4606170654297)" d="M 465 366.3 C 465 371.90000000000003 465.7 385.2 457.5 386.3 C 449 387.3 449.9 371.8 449.9 367.2 C 449.9 362.09999999999997 449 347.4 457.4 347.4 C 465.7 347.3 465 361.2 465 366.3 z M 454 367 C 454 370.4 453.9 379.9 457.5 379.6 C 461 379.3 460.9 370 460.9 366.6 C 460.9 363.5 460.79999999999995 353.90000000000003 457.4 354 C 453.7 354.1 454 363.4 454 367 z" stroke-linecap="round"/><path style="stroke: none; stroke-width: 1; stroke-dasharray: none; stroke-linecap: butt; stroke-dashoffset: 0; stroke-linejoin: miter; stroke-miterlimit: 4; fill: rgb(255,255,255); fill-rule: nonzero; opacity: 1;" vector-effect="non-scaling-stroke" transform="matrix(0.9074075222015381, 0, 0, 0.9074075222015381, 309.9710693359375, 238.46067810058594)" d="M 482.5 378.8 C 482.5 380.6 482.1 381.6 481.1 381.8 C 480.1 382 479.6 382.1 478.70000000000005 382.3 C 477.90000000000003 382.5 477.50000000000006 381.8 477.1 380.3 C 475.5 374.3 473.90000000000003 368.2 472.40000000000003 362.2 C 472.00000000000006 360.7 471.50000000000006 358.5 471.3 356.7 C 471.2 356.7 471.1 356.7 471 356.7 C 471.1 358.59999999999997 471.2 360.5 471.2 362.4 C 471.2 369.5 471.3 376.5 471.3 383.59999999999997 C 469.8 383.79999999999995 469.1 383.99999999999994 467.6 384.2 C 467.5 373.09999999999997 467.5 362 467.40000000000003 350.8 C 467.40000000000003 348.90000000000003 467.90000000000003 347.90000000000003 468.8 347.90000000000003 C 469.8 347.90000000000003 470.2 347.90000000000003 471.2 347.90000000000003 C 472 347.90000000000003 472.4 348.70000000000005 472.8 350.20000000000005 C 474.3 356.1 475.8 362.1 477.40000000000003 368.00000000000006 C 477.8 369.50000000000006 478.3 371.50000000000006 478.70000000000005 373.40000000000003 C 478.80000000000007 373.40000000000003 478.90000000000003 373.40000000000003 479.00000000000006 373.40000000000003 C 478.90000000000003 371.50000000000006 478.80000000000007 369.6 478.80000000000007 367.70000000000005 C 478.80000000000007 361.1 478.70000000000005 354.50000000000006 478.70000000000005 348.00000000000006 C 480.20000000000005 348.00000000000006 480.90000000000003 348.00000000000006 482.40000000000003 348.00000000000006 C 482.4 358.3 482.4 368.5 482.5 378.8 z" stroke-linecap="round"/><path style="stroke: none; stroke-width: 1; stroke-dasharray: none; stroke-linecap: butt; stroke-dashoffset: 0; stroke-linejoin: miter; stroke-miterlimit: 4; fill: rgb(255,255,255); fill-rule: nonzero; opacity: 1;" vector-effect="non-scaling-stroke" transform="matrix(0.9074075222015381, 0, 0, 0.9074075222015381, 309.9801940917969, 238.4515380859375)" d="M 496.9 348.5 C 496.79999999999995 350.3 496.79999999999995 351.2 496.7 353 C 495.2 353 493 353.1 491.2 353.1 C 489.3 353.20000000000005 488.59999999999997 353.40000000000003 488.7 356.20000000000005 C 488.7 358.40000000000003 489.2 359.00000000000006 490.59999999999997 359.70000000000005 C 491.9 360.40000000000003 492.59999999999997 360.70000000000005 493.99999999999994 361.40000000000003 C 496.79999999999995 362.8 497.59999999999997 365.50000000000006 497.79999999999995 369.70000000000005 C 497.99999999999994 374.40000000000003 496.29999999999995 378.80000000000007 491.29999999999995 380.1 C 490.19999999999993 380.40000000000003 487.99999999999994 380.8 485.19999999999993 380.3 C 485.29999999999995 378.2 485.29999999999995 377.1 485.3999999999999 375 C 488.69999999999993 374.5 490.0999999999999 374.3 491.19999999999993 374.1 C 493.19999999999993 373.70000000000005 493.79999999999995 373 493.79999999999995 370.5 C 493.79999999999995 368.3 493.29999999999995 367.9 492.09999999999997 367.4 C 490.7 366.7 489.99999999999994 366.4 488.49999999999994 365.7 C 485.79999999999995 364.3 484.8999999999999 361.3 484.79999999999995 356.5 C 484.69999999999993 352.2 485.9 347.1 491.19999999999993 347.3 C 492.7 347.4 494.9 347.6 496.9 348.5 z" stroke-linecap="round"/><path style="stroke: none; stroke-width: 1; stroke-dasharray: none; stroke-linecap: butt; stroke-dashoffset: 0; stroke-linejoin: miter; stroke-miterlimit: 4; fill: rgb(255,255,255); fill-rule: nonzero; opacity: 1;" vector-effect="non-scaling-stroke" transform="matrix(0.9074075222015381, 0, 0, 0.9074075222015381, 309.9710693359375, 238.46066284179688)" d="M 511.4 369 C 511.5 370.6 511.5 371.5 511.59999999999997 373.1 C 509.2 374.3 506.2 375.3 503.49999999999994 376.1 C 501.19999999999993 376.8 499.69999999999993 375 499.59999999999997 371.40000000000003 C 499.59999999999997 365.50000000000006 499.49999999999994 359.6 499.49999999999994 353.70000000000005 C 499.49999999999994 350.1 500.99999999999994 347.80000000000007 503.3999999999999 347.80000000000007 C 506.0999999999999 347.80000000000007 509.19999999999993 347.80000000000007 511.5999999999999 348.1000000000001 C 511.4999999999999 349.80000000000007 511.4999999999999 350.6000000000001 511.3999999999999 352.30000000000007 C 508.69999999999993 352.50000000000006 507.2999999999999 352.6000000000001 504.5999999999999 352.70000000000005 C 503.7999999999999 352.70000000000005 503.3999999999999 353.40000000000003 503.3999999999999 354.90000000000003 C 503.3999999999999 356.6 503.3999999999999 357.50000000000006 503.3999999999999 359.20000000000005 C 506.19999999999993 358.80000000000007 507.5999999999999 358.70000000000005 510.3999999999999 358.30000000000007 C 510.3999999999999 360.00000000000006 510.3999999999999 360.80000000000007 510.3999999999999 362.4000000000001 C 507.5999999999999 362.9000000000001 506.19999999999993 363.2000000000001 503.3999999999999 363.7000000000001 C 503.3999999999999 365.9000000000001 503.3999999999999 367.0000000000001 503.3999999999999 369.1000000000001 C 503.3999999999999 370.6000000000001 503.7999999999999 371.1000000000001 504.5999999999999 370.9000000000001 C 507.4 370.1 508.7 369.8 511.4 369 z" stroke-linecap="round"/><path style="stroke: none; stroke-width: 1; stroke-dasharray: none; stroke-linecap: butt; stroke-dashoffset: 0; stroke-linejoin: miter; stroke-miterlimit: 4; fill: rgb(227,190,23); fill-rule: nonzero; opacity: 1;" vector-effect="non-scaling-stroke" transform="matrix(0.9074075222015381, 0, 0, 0.9074075222015381, 309.9710693359375, 238.46066284179688)" d="M 431.7 400.9 C 402.4 400.9 373.09999999999997 395.4 345.29999999999995 384.29999999999995 C 342.9 383.29999999999995 341.29999999999995 381.09999999999997 341.29999999999995 378.49999999999994 L 341.29999999999995 343 C 341.29999999999995 339.5 344.09999999999997 336.7 347.59999999999997 336.7 L 364.2 336.7 L 366.9 339.3 C 367.4 339.8 367.09999999999997 340.8 366.29999999999995 340.8 L 347.49999999999994 340.8 C 346.29999999999995 340.8 345.29999999999995 341.8 345.29999999999995 343 L 345.29999999999995 378.4 C 345.29999999999995 379.29999999999995 345.79999999999995 380.09999999999997 346.69999999999993 380.5 C 401.49999999999994 402.3 461.79999999999995 402.3 516.5999999999999 380.5 C 517.4999999999999 380.2 517.9999999999999 379.4 517.9999999999999 378.4 L 517.9999999999999 343 C 517.9999999999999 341.8 516.9999999999999 340.8 515.7999999999998 340.8 L 497.09999999999985 340.8 C 496.29999999999984 340.8 495.99999999999983 339.90000000000003 496.49999999999983 339.3 L 499.1999999999998 336.7 L 515.7999999999998 336.7 C 519.2999999999998 336.7 522.0999999999998 339.5 522.0999999999998 343 L 522.0999999999998 378.4 C 522.0999999999998 381 520.4999999999998 383.29999999999995 518.0999999999998 384.2 C 490.3 395.4 461 400.9 431.7 400.9 z" stroke-linecap="round"/></g><g transform="matrix(0.9074075222015381, 0, 0, 0.9074075222015381, 891.9495544433594, 522.8843078613281)">
<path style="stroke: none; stroke-width: 1; stroke-dasharray: none; stroke-linecap: butt; stroke-dashoffset: 0; stroke-linejoin: miter; stroke-miterlimit: 4; fill: rgb(255,255,255); fill-rule: nonzero; opacity: 1;" vector-effect="non-scaling-stroke" transform=" translate(-937.8, -296.25)" d="M 939 301.9 L 936.6 301.9 L 936.6 292.59999999999997 L 933.5 292.59999999999997 L 933.5 290.59999999999997 L 942.1 290.59999999999997 L 942.1 292.59999999999997 L 939 292.59999999999997 L 939 301.9 z" stroke-linecap="round"/>
</g><g transform="matrix(0.9074075222015381, 0, 0, 0.9074075222015381, 898.5735778808594, 522.8843078613281)">
<path style="stroke: none; stroke-width: 1; stroke-dasharray: none; stroke-linecap: butt; stroke-dashoffset: 0; stroke-linejoin: miter; stroke-miterlimit: 4; fill: rgb(255,255,255); fill-rule: nonzero; opacity: 1;" vector-effect="non-scaling-stroke" transform=" translate(-945.1, -296.25)" d="M 943.9 301.9 L 943.9 290.59999999999997 L 946.3 290.59999999999997 L 946.3 301.9 L 943.9 301.9 z" stroke-linecap="round"/>
</g><g transform="matrix(0.9074075222015381, 0, 0, 0.9074075222015381, 906.6495056152344, 522.8388977050781)">
<path style="stroke: none; stroke-width: 1; stroke-dasharray: none; stroke-linecap: butt; stroke-dashoffset: 0; stroke-linejoin: miter; stroke-miterlimit: 4; fill: rgb(255,255,255); fill-rule: nonzero; opacity: 1;" vector-effect="non-scaling-stroke" transform=" translate(-954, -296.2)" d="M 959.4 296.2 C 959.4 298.09999999999997 958.9 299.5 958 300.5 C 957.1 301.5 955.7 302 954 302 C 952.3 302 950.9 301.5 950 300.5 C 949.1 299.5 948.6 298 948.6 296.2 C 948.6 294.3 949.1 292.9 950 291.9 C 950.9 290.9 952.3 290.4 954 290.4 C 955.7 290.4 957.1 290.9 958 291.9 C 958.9 292.9 959.4 294.3 959.4 296.2 z M 951.1 296.2 C 951.1 297.5 951.3000000000001 298.4 951.8000000000001 299.09999999999997 C 952.3000000000001 299.7 953.0000000000001 300.09999999999997 954.0000000000001 300.09999999999997 C 955.9000000000001 300.09999999999997 956.9000000000001 298.79999999999995 956.9000000000001 296.29999999999995 C 956.9000000000001 293.69999999999993 955.9000000000001 292.49999999999994 954.0000000000001 292.49999999999994 C 953.0000000000001 292.49999999999994 952.3000000000001 292.79999999999995 951.8000000000001 293.49999999999994 C 951.3000000000001 294.19999999999993 951.1 295 951.1 296.2 z" stroke-linecap="round"/>
</g><g transform="matrix(0.9074075222015381, 0, 0, 0.9074075222015381, 918.2189636230469, 522.8388977050781)">
<path style="stroke: none; stroke-width: 1; stroke-dasharray: none; stroke-linecap: butt; stroke-dashoffset: 0; stroke-linejoin: miter; stroke-miterlimit: 4; fill: rgb(255,255,255); fill-rule: nonzero; opacity: 1;" vector-effect="non-scaling-stroke" transform=" translate(-966.75, -296.2)" d="M 971.8 301.9 L 968.6999999999999 301.9 L 963.8 293.29999999999995 L 963.6999999999999 293.29999999999995 C 963.8 294.79999999999995 963.8 295.9 963.8 296.49999999999994 L 963.8 301.79999999999995 L 961.6999999999999 301.79999999999995 L 961.6999999999999 290.49999999999994 L 964.6999999999999 290.49999999999994 L 969.5999999999999 298.99999999999994 L 969.6999999999999 298.99999999999994 C 969.5999999999999 297.49999999999994 969.5999999999999 296.49999999999994 969.5999999999999 295.8999999999999 L 969.5999999999999 290.49999999999994 L 971.8 290.49999999999994 L 971.8 301.9 z" stroke-linecap="round"/>
</g></svg>
