<?xml version="1.0" encoding="utf-8"?>
<svg id="master-artboard" viewBox="0 0 1400 980" version="1.1" xmlns="http://www.w3.org/2000/svg" x="0px" y="0px"
    style="enable-background: new 0 0 1400 980" width="500px" height="480px">
    <g transform="matrix(1.4,0,0,1.4,0,186)">
        <g transform="matrix(3.5,0,0,3.2,-1211.5,-318)">
            <g>
                <g>
                    <path class="st19"
                        d="M 487.4 269.2 c -5 0 -9.7 -1.9 -13.3 -5.4 l -64.9 -62.6 c -5.7 -5.5 -7.4 -13.8 -4.4 -21.1 l 9.1 -21.8 l 3.9 -37.6 c 0.5 -5.2 3.3 -10 7.4 -13.2 l 50.5 -38.5 c 3.3 -2.5 7.4 -3.9 11.6 -3.9 s 8.3 1.4 11.6 3.9 l 50.5 38.5 c 4.2 3.2 6.9 8 7.4 13.2 l 4 37.9 l 9 21.4 c 3 7.2 1.3 15.8 -4.4 21.2 l -64.8 62.6 C 497.1 267.3 492.4 269.2 487.4 269.2 z"
                        style="fill: rgb(227, 190, 23)" />
                    <path
                        d="M 487.4 265.1 c -3.9 0 -7.6 -1.5 -10.5 -4.2 l -64.9 -62.6 c -4.5 -4.3 -5.8 -10.9 -3.4 -16.6 l 9.3 -22.4 l 4 -38.2 c 0.4 -4.1 2.6 -7.9 5.8 -10.4 l 50.5 -38.5 c 2.6 -2 5.8 -3.1 9.1 -3.1 c 3.3 0 6.5 1.1 9.1 3.1 l 50.5 38.5 c 3.3 2.5 5.4 6.3 5.8 10.4 l 4 38.5 l 9.2 22 c 2.4 5.7 1 12.4 -3.4 16.7 l -64.8 62.6 C 495 263.6 491.3 265.1 487.4 265.1 z" />
                    <path class="st20"
                        d="M 558.5 184.8 l -9.7 -23.1 l -4.2 -39.7 c -0.2 -1.9 -1.2 -3.6 -2.7 -4.7 l -50.5 -38.5 c -2.5 -1.9 -5.8 -1.9 -8.3 0 l -50.5 38.5 c -1.5 1.1 -2.5 2.9 -2.7 4.7 l -4.1 39.4 l -9.8 23.5 c -1.1 2.6 -0.5 5.6 1.6 7.6 l 64.9 62.6 c 2.7 2.6 6.9 2.6 9.5 0 l 64.8 -62.6 C 559 190.4 559.6 187.4 558.5 184.8 z"
                        style="fill: rgb(64, 64, 65)" />
                    <path class="st20"
                        d="M 429.9 124 l -5.3 50.2 l 62.8 32.9 l 62.8 -32.9 l -5.3 -50.2 c -0.3 -3.2 -2 -6.1 -4.5 -8 L 498.6 84.2 c -6.6 -5.1 -15.8 -5.1 -22.5 0 l -41.8 31.8 C 431.9 118 430.2 120.8 429.9 124 z"
                        style="fill: rgb(64, 64, 65)" />
                    <path class="st20"
                        d="M 416.2 184.8 l 30 -72 l 41 -16.8 l 41 16.8 l 30.3 72 c 1.1 2.6 0.5 5.6 -1.6 7.6 l -64.8 62.6 c -2.7 2.6 -6.9 2.6 -9.5 0 l -64.9 -62.6 C 415.7 190.4 415.1 187.4 416.2 184.8 z"
                        style="fill: rgb(64, 64, 65)" />
                    <path
                        d="M 433.4 180.5 l 19.8 -53.2 l 34.2 -27.4 l 34.2 27.4 l 19.8 53.2 c 0.9 2.5 0.3 5.3 -1.5 7.2 l -47.6 48.2 c -2.7 2.7 -7.1 2.7 -9.7 0 l -47.6 -48.2 C 433.1 185.8 432.5 183 433.4 180.5 z" />
                    <g>
                        <g>
                            <path d="M 496 215.1 L 496.5 210.1 L 493.4 210.1 L 494.3 215.1 Z" class="st21"
                                style="fill: rgb(103, 115, 50)" />
                            <path class="st21"
                                d="M 504.7 214.5 c 0.1 -1 -0.7 -1.8 -1.6 -1.7 l -4.7 0.4 c -0.5 0 -0.9 0.3 -1.1 0.8 l -1.1 2.3 c -0.1 0.2 -0.2 0.3 -0.4 0.3 l -0.8 0.3 c -0.4 0.1 -0.8 0 -0.9 -0.4 l -1.2 -3.4 c -0.2 -0.5 -0.7 -0.8 -1.3 -0.8 l -8.5 0.1 c -0.5 0 -1 0.3 -1.2 0.8 l -1.4 3.5 c -0.1 0.3 -0.5 0.5 -0.9 0.4 l -0.9 -0.3 c -0.2 -0.1 -0.3 -0.2 -0.4 -0.3 l -1.1 -2.2 c -0.2 -0.4 -0.6 -0.7 -1 -0.7 l -4.7 -0.6 c -1.1 -0.1 -2 0.9 -1.7 1.9 l 0.9 3.4 l 6.6 9.2 c 1.3 1.8 3.4 2.8 5.6 2.8 h 8.6 c 2.2 0 4.3 -1.1 5.6 -2.8 l 7.3 -10.1 L 504.7 214.5 z"
                                style="fill: rgb(103, 115, 50)" />
                            <path d="M 480.2 215.1 L 481.1 210.1 L 478 210.1 L 478.5 215.1 Z" class="st21"
                                style="fill: rgb(103, 115, 50)" />
                        </g>
                        <g>
                            <path class="st21"
                                d="M 510 199.9 c 0.3 -0.2 0.5 -0.6 0.5 -1 C 510.6 199.3 510.4 199.7 510 199.9 z"
                                style="fill: rgb(103, 115, 50)" />
                            <path class="st21"
                                d="M 465.1 197.3 c 0.1 0.6 0.6 1.1 1.3 1.1 l 5.2 0.2 l 0.9 -6.2 c 0.1 -0.4 0.5 -0.7 0.9 -0.5 l 2.5 1 l 1.5 5.3 c 0.1 0.3 0.4 0.5 0.7 0.5 l 6 -0.1 c 0.3 0 0.6 -0.2 0.6 -0.5 l 1.2 -4.7 c 0.1 -0.3 0.4 -0.5 0.7 -0.5 h 1.6 c 0.3 0 0.6 0.2 0.7 0.5 l 1 4.6 c 0.1 0.3 0.3 0.5 0.7 0.5 l 6.4 0 c 0.3 0 0.6 -0.2 0.7 -0.5 l 1.1 -5.2 l 2.9 -0.7 c 0.4 -0.1 0.8 0.2 0.8 0.6 l 0.8 5.8 l 5.1 -0.5 c 0.6 -0.1 1 -0.5 1.2 -1 l 0.4 -1.5 l -6.1 -30.6 h -32.8 l -6.8 33.7 l 0.6 -3 L 465.1 197.3 z"
                                style="fill: rgb(103, 115, 50)" />
                            <path d="M 473.5 193.9 L 472.9 200.2 L 476.3 200.2 L 475.2 193.9 Z" class="st21"
                                style="fill: rgb(103, 115, 50)" />
                            <path d="M 486.9 193.9 L 485.8 200.2 L 489.1 200.2 L 488 193.9 Z" class="st21"
                                style="fill: rgb(103, 115, 50)" />
                            <path d="M 499.5 193.9 L 498.4 200.2 L 501.8 200.2 L 501.3 193.9 Z" class="st21"
                                style="fill: rgb(103, 115, 50)" />
                        </g>
                        <path d="M 448.8 126.5 L 441.7 161.7 L 487.4 179.3 L 533.1 161.7 L 526 126.5 L 487.4 113.6 Z"
                            class="st21" style="fill: rgb(103, 115, 50)" />
                        <path class="st21"
                            d="M 527.6 191.1 l -28 -4.6 c -3.7 -0.6 -6.3 -4.2 -5.6 -7.9 l 5.3 -30.4 c 0.9 -5 6.6 -7.3 10.7 -4.4 l 25.3 17.9 c 1.6 1.2 2.7 3 2.9 4.9 l 0.3 3.4 c 0.4 4.2 -0.2 8.5 -1.7 12.5 l -1.7 4.3 C 533.9 189.8 530.8 191.6 527.6 191.1 z"
                            style="fill: rgb(103, 115, 50)" />
                        <path class="st22"
                            d="M 528.7 187.1 l -12.8 -2.1 c -0.7 -0.1 -0.8 -1.2 0 -1.3 l 9.3 -2.1 c 1.4 -0.3 2.6 -1.2 3.2 -2.5 l 5.7 -11.4 c 0.3 -0.6 1.2 -0.4 1.3 0.2 l 0.4 3.7 c 0.1 1.1 0 2.1 -0.4 3.1 l -4.3 11.1 C 530.6 186.7 529.6 187.3 528.7 187.1 z"
                            style="fill: rgb(68, 77, 34)" />
                        <path class="st21"
                            d="M 474.8 186.4 l -28 4.6 c -3.2 0.5 -6.3 -1.3 -7.5 -4.3 l -1.7 -4.3 c -1.5 -4 -2.1 -8.3 -1.7 -12.5 l 0.3 -3.4 c 0.2 -2 1.2 -3.8 2.9 -4.9 l 25.3 -17.9 c 4.1 -2.9 9.8 -0.5 10.7 4.4 l 5.3 30.4 C 481.1 182.3 478.6 185.8 474.8 186.4 z"
                            style="fill: rgb(103, 115, 50)" />
                        <path d="M 486.8 193.9 L 487.9 193.9 L 489.3 201.7 L 485.5 201.7 Z" />
                        <path d="M 477.8 207.3 L 481.6 207.3 L 480.2 215.1 L 478.5 215.1 Z" />
                        <path d="M 499.5 193.9 L 501.3 193.9 L 502 201.7 L 498.2 201.7 Z" />
                        <path d="M 492.9 207.3 L 496.7 207.3 L 496 215.1 L 494.3 215.1 Z" />
                        <path d="M 473.5 193.9 L 475.2 193.9 L 476.6 201.7 L 472.8 201.7 Z" />
                        <path
                            d="M 480.7 179.1 l 5.3 -9.2 c 0.5 -0.9 1.8 -0.9 2.4 0 l 5.3 9.2 c 0.6 1.1 -0.5 2.4 -1.7 2 l -3.9 -1.4 c -0.6 -0.2 -1.3 -0.2 -1.9 0 l -3.9 1.4 C 481.2 181.5 480.1 180.2 480.7 179.1 z" />
                        <path class="st22"
                            d="M 530.1 141.7 l -1.5 -4.1 c -2.9 -7.8 -7 -14.1 -16.7 -16.3 l -24.7 -8.4 l -24.7 7.7 c -7.7 3.1 -13.8 9.3 -16.7 17.1 l -1.3 3.4 l 5.4 -4.3 c 9.8 -7.7 21.5 -12.4 33.9 -13.6 h 0 l 4.3 -0.8 l 9.8 11 h 1.2 c 8 0 16 1.7 23.3 5 L 530.1 141.7 z"
                            style="fill: rgb(68, 77, 34)" />
                        <path
                            d="M 496.7 118.3 L 483.2 136.7 L 496.2 133.2 L 484.5 156.2 L 487.6 154.5 L 509.4 123.4 L 500.9 123.6 L 503.7 120 Z"
                            class="st22" style="fill: rgb(68, 77, 34)" />
                        <path
                            d="M 491.2 102.9 L 478 138.3 L 491.1 134.8 L 484.5 156.2 L 487.4 154.6 L 502.8 125.4 L 493.6 125.8 L 502.4 111.8 Z"
                            class="st19" style="fill: rgb(227, 190, 23)" />
                        <path d="M 500.7 125.5 L 486.9 154.8 L 487.4 154.6 L 502.8 125.4 Z" class="st23"
                            style="fill: rgb(191, 152, 46)" />
                        <path d="M 500.9 110.7 L 491.8 126 L 493.6 125.8 L 502.4 111.8 Z" class="st23"
                            style="fill: rgb(191, 152, 46)" />
                        <path class="st22"
                            d="M 525.5 146.5 c 2.4 24.2 -16.7 25.5 -27.7 19.9 C 510.1 175 529.2 176.7 525.5 146.5 z"
                            style="fill: rgb(68, 77, 34)" />
                        <path
                            d="M 525.5 146.5 c 0 0 -3 4.3 -14.9 8.4 c 1.1 0.8 1.7 2.1 1.7 3.6 c -0.1 2.4 -2.1 4.3 -4.6 4.3 c -2.4 -0.1 -4.3 -2.1 -4.3 -4.6 c 0 -0.4 0.1 -0.8 0.2 -1.2 c -3.7 1 -8 1.9 -12.9 2.7 C 494.9 170.7 528.7 178.1 525.5 146.5 z" />
                        <path class="st19"
                            d="M 503.5 158.2 c -0.1 2.4 1.8 4.5 4.3 4.6 c 2.4 0.1 4.5 -1.8 4.6 -4.3 c 0 -1.5 -0.6 -2.8 -1.7 -3.6 c -1.8 0.7 -4.1 1.4 -6.9 2.1 C 503.5 157.3 503.5 157.7 503.5 158.2 z"
                            style="fill: rgb(227, 190, 23)" />
                        <path class="st22"
                            d="M 448.8 146.5 c -2.4 24.2 16.7 25.5 27.7 19.9 C 464.3 175 445.1 176.7 448.8 146.5 z"
                            style="fill: rgb(68, 77, 34)" />
                        <path
                            d="M 448.8 146.5 c 0 0 3 4.3 14.9 8.4 c -1.1 0.8 -1.7 2.1 -1.7 3.6 c 0.1 2.4 2.1 4.3 4.6 4.3 c 2.4 -0.1 4.3 -2.1 4.3 -4.6 c 0 -0.4 -0.1 -0.8 -0.2 -1.2 c 3.7 1 8 1.9 12.9 2.7 C 479.4 170.7 445.6 178.1 448.8 146.5 z" />
                        <path class="st19"
                            d="M 470.9 158.2 c 0.1 2.4 -1.8 4.5 -4.3 4.6 c -2.4 0.1 -4.5 -1.8 -4.6 -4.3 c 0 -1.5 0.6 -2.8 1.7 -3.6 c 1.8 0.7 4.1 1.4 6.9 2.1 C 470.8 157.3 470.9 157.7 470.9 158.2 z"
                            style="fill: rgb(227, 190, 23)" />
                        <path class="st22"
                            d="M 480.2 154.3 c -11.7 -9.4 -16 -21.6 -41.4 -15.8 c 0 0 0.5 1.8 0.8 4.4 C 455.8 134.2 464.8 146.5 480.2 154.3 z"
                            style="fill: rgb(68, 77, 34)" />
                        <path
                            d="M 480.2 154.3 c -13.9 -2.9 -22.9 -18.3 -40.5 -6.8 c 0 -3.8 -0.4 -4.5 -0.4 -4.5 C 455.7 134.1 464.7 146.5 480.2 154.3 z" />
                        <path class="st22"
                            d="M 534.2 142.7 c 0.3 -2.5 0.8 -4.2 0.8 -4.2 c -25.4 -5.8 -29.7 6.5 -41.4 15.8 c 0.3 -0.1 0.5 -0.2 0.8 -0.3 C 509.3 146.3 518.3 134.4 534.2 142.7 z"
                            style="fill: rgb(68, 77, 34)" />
                        <path class="st22"
                            d="M 445.7 187.1 l 12.8 -2.1 c 0.7 -0.1 0.8 -1.2 0 -1.3 l -9.3 -2.1 c -1.4 -0.3 -2.6 -1.2 -3.2 -2.5 l -5.7 -11.4 c -0.3 -0.6 -1.2 -0.4 -1.3 0.2 l -0.4 3.7 c -0.1 1.1 0 2.1 0.4 3.1 l 4.3 11.1 C 443.8 186.7 444.7 187.3 445.7 187.1 z"
                            style="fill: rgb(68, 77, 34)" />
                        <path class="st22"
                            d="M 470.8 218.1 l -4.2 -5.8 c -0.7 -0.9 0 -2.2 1.1 -2.2 h 10.3 l 0.4 5 h 1.8 l 0.9 -5 h 12.3 l 0.9 5 h 1.8 l 0.4 -5 h 10.3 c 1.1 0 1.8 1.3 1.1 2.2 l -3.5 4.9 l 0.3 -2.7 c 0.1 -1 -0.7 -1.8 -1.6 -1.7 l -4.7 0.4 c -0.5 0 -0.9 0.3 -1.1 0.8 l -1.1 2.3 c -0.1 0.2 -0.2 0.3 -0.4 0.3 l -0.8 0.3 c -0.4 0.1 -0.8 0 -0.9 -0.4 l -1.2 -3.4 c -0.2 -0.5 -0.7 -0.8 -1.3 -0.8 l -8.5 0.1 c -0.5 0 -1 0.3 -1.2 0.8 l -1.4 3.5 c -0.1 0.3 -0.5 0.5 -0.9 0.4 l -0.9 -0.3 c -0.2 -0.1 -0.3 -0.2 -0.4 -0.3 l -1.1 -2.2 c -0.2 -0.4 -0.6 -0.7 -1 -0.7 l -4.7 -0.6 c -1.1 -0.1 -2 0.9 -1.7 1.9 L 470.8 218.1 z"
                            style="fill: rgb(68, 77, 34)" />
                        <path d="M 510.6 188.2 L 507.1 181.2 L 508.8 189.9 Z" />
                        <path d="M 464.2 188.2 L 467.7 181.2 L 466 189.9 Z" />
                        <path d="M 532.5 159.1 c 0 0 0.2 2.6 -2.5 5.7 c 2 -1.5 3.1 -3.2 3.9 -4.3 L 532.5 159.1 z" />
                        <path d="M 442.3 158.7 c 0 0 -0.2 2.6 2.5 5.7 c -1.9 -1.4 -3 -3 -3.7 -4.1 L 442.3 158.7 z" />
                        <path class="st22"
                            d="M 509.9 195.5 l 0.6 3.1 c 0.2 0.8 -0.5 1.6 -1.3 1.6 h -7.3 l -0.5 -6.3 h -1.8 l -1.1 6.3 h -9.4 l -1.1 -6.3 h -1.1 l -1.1 6.3 h -9.5 l -1.1 -6.3 h -1.8 l -0.5 6.3 H 465.6 c -0.9 0 -1.5 -0.8 -1.3 -1.6 l 0.6 -3 l 0.3 1.7 c 0.1 0.6 0.6 1.1 1.3 1.1 l 5.2 0.2 l 0.9 -6.2 c 0.1 -0.4 0.5 -0.7 0.9 -0.5 l 2.5 1 l 1.5 5.3 c 0.1 0.3 0.4 0.5 0.7 0.5 l 6 -0.1 c 0.3 0 0.6 -0.2 0.6 -0.5 l 1.2 -4.7 c 0.1 -0.3 0.4 -0.5 0.7 -0.5 h 1.6 c 0.3 0 0.6 0.2 0.7 0.5 l 1 4.6 c 0.1 0.3 0.3 0.5 0.7 0.5 l 6.4 0 c 0.3 0 0.6 -0.2 0.7 -0.5 l 1.1 -5.2 l 2.9 -0.7 c 0.4 -0.1 0.8 0.2 0.8 0.6 l 0.8 5.8 l 5.1 -0.5 c 0.6 -0.1 1 -0.5 1.2 -1 L 509.9 195.5 z"
                            style="fill: rgb(68, 77, 34)" />
                        <path
                            d="M 493.8 154.3 c 13.9 -2.9 22.9 -18.3 40.5 -6.8 c 0 -3.8 0.4 -4.5 0.4 -4.5 C 518.3 134.1 509.3 146.5 493.8 154.3 z" />
                    </g>
                    <path class="st20"
                        d="M 441.6 158.5 l 7.7 -20.6 c 2.6 -7 7 -13.1 12.8 -17.7 l 21.2 -14.2 c 2.3 -1.5 5.2 -1.5 7.5 0 l 21.9 14.3 c 5.8 4.6 10.2 10.8 12.8 17.7 l 7.4 19.9 l 12.3 -4.6 l -17 -40.4 l -36.9 -24.1 c -2.6 -1.7 -6 -1.4 -8.3 0.6 l -42.9 37.9 l -11.4 27.3 L 441.6 158.5 z"
                        style="fill: rgb(64, 64, 65)" />
                    <path class="st24"
                        d="M 430.1 122 l -2.4 22.9 l -13.2 39.3 c -0.9 2.7 -0.1 5.6 2.1 7.4 l 3.2 2.7 l 32.3 31.1 L 424.8 191.1 c -1.5 -1.9 -1.9 -4.5 -1 -6.8 l 21.4 -53.3 c 1 -2.5 2.5 -4.8 4.4 -6.7 l 34 -34.9 c 2.1 -2.1 5.3 -2.7 8 -1.3 l 35.8 18 l -35.8 -27.3 c -2.5 -1.9 -5.8 -1.9 -8.3 0 l -50.5 38.5 C 431.3 118.4 430.3 120.1 430.1 122 z"
                        style="fill: rgb(109, 110, 112)" />
                    <path d="M 421.4 161.8 L 440.2 127.3 L 421.4 153.3 Z" />
                    <path d="M 533.3 110.7 L 544.1 118.7 L 557.6 182.5 L 532.9 123.9 L 509.8 103.4 Z" class="st25"
                        style="fill: rgb(29, 29, 29)" />
                    <path d="M 555.4 193.9 L 532.9 205.4 L 555.4 197.8 Z" />
                    <path class="st26"
                        d="M 549.2 199.9 l -53.7 51.9 l -4.2 1.8 c -2.6 1.1 -5.7 0.5 -7.7 -1.6 l -6.1 -6.4 l 6.2 1.4 c 2 0.5 4.1 0 5.7 -1.2 L 549.2 199.9 z"
                        style="fill: rgb(39, 39, 39)" />
                </g>
                <path
                    d="M 399 212.1 v 35.4 c 0 1.7 1.1 3.3 2.7 4 l 0 0 c 55 21.9 116.4 21.9 171.4 0 l 0 0 c 1.6 -0.6 2.7 -2.2 2.7 -4 V 212.1 c 0 -2.3 -1.9 -4.3 -4.3 -4.3 h -19.7 H 403.2 C 400.9 207.8 399 209.7 399 212.1 z" />
                <g>
                    <g>
                        <path class="st3"
                            d="M 427.7 219.6 c 0.2 9.6 0.4 19.3 0.5 28.9 c -1.5 -0.4 -2.2 -0.6 -3.7 -1 c -0.2 -8.4 -0.3 -16.9 -0.5 -25.3 c -0.2 0 -0.3 0 -0.4 0 c -0.9 6.1 -1.8 12.1 -2.7 18.2 c -0.2 1.4 -0.7 1.9 -1.6 1.7 c -1 -0.3 -1.5 -0.4 -2.5 -0.7 c -0.9 -0.2 -1.4 -1 -1.6 -2.4 c -0.8 -5.8 -1.7 -11.6 -2.6 -17.4 c -0.2 0 -0.3 0 -0.4 0 c -0.2 7.4 -0.4 14.7 -0.5 22.1 c -1.5 -0.5 -2.2 -0.7 -3.6 -1.2 c 0.2 -7.8 0.4 -15.6 0.6 -23.4 c 0.1 -1.4 0.5 -2.1 1.5 -2.1 c 1.5 0 2.3 0 3.8 0 c 0.8 0 1.4 0.7 1.5 2 c 0.7 4.8 1.4 9.5 2.1 14.3 c 0.2 1.4 0.3 2.8 0.4 4.1 c 0.1 0 0.2 0 0.3 0.1 c 0.2 -1.3 0.3 -2.6 0.5 -4 c 0.7 -4.8 1.5 -9.6 2.2 -14.4 c 0.2 -1.4 0.7 -2.1 1.6 -2.1 c 1.5 0 2.3 0 3.8 0 C 427.3 217 427.7 217.9 427.7 219.6 z"
                            style="fill: rgb(255, 255, 255)" />
                        <path class="st3"
                            d="M 442.7 245.8 c 0.1 2.3 0.1 3.4 0.1 5.7 c -2.4 0 -5.5 -0.6 -8.2 -1.2 c -2.3 -0.5 -3.8 -3.4 -3.8 -7.4 c 0 -6.5 0.1 -13 0.1 -19.5 c 0 -4 1.6 -6.5 3.9 -6.5 c 2.7 0 5.8 0 8.2 0.5 c -0.1 2.3 -0.1 3.4 -0.2 5.7 c -2.7 -0.1 -4.1 -0.2 -6.8 -0.3 c -0.8 0 -1.2 0.7 -1.2 2.4 c 0 2 0 3 0 5 c 2.8 0.3 4.2 0.4 7 0.6 c 0 2.2 0 3.3 0 5.5 c -2.8 -0.3 -4.2 -0.5 -7 -0.8 c 0 2.5 0 3.8 0 6.4 c 0 1.8 0.3 2.6 1.2 2.7 C 438.6 245.1 440 245.3 442.7 245.8 z"
                            style="fill: rgb(255, 255, 255)" />
                        <path class="st3"
                            d="M 459 223.8 c -2.1 -0.1 -3.2 -0.1 -5.3 -0.1 c -0.1 10 -0.1 19.9 -0.2 29.9 c -1.6 -0.2 -2.4 -0.3 -3.9 -0.6 c 0.1 -9.8 0.1 -19.6 0.2 -29.4 c -2.1 -0.1 -3.2 -0.1 -5.3 -0.2 c 0 -2.5 0 -3.8 0 -6.3 c 4.8 0 9.6 0 14.5 0 C 459 219.8 459 221.1 459 223.8 z"
                            style="fill: rgb(255, 255, 255)" />
                        <path class="st3"
                            d="M 469 245.3 c -2.4 -0.1 -3.7 -0.2 -6.1 -0.4 c -0.5 3.9 -0.8 5.9 -1.3 9.7 c -1.6 -0.2 -2.4 -0.3 -4 -0.5 c 1.8 -11.6 3.5 -23.2 5.3 -34.8 c 0.2 -1.4 0.7 -2.2 1.4 -2.2 c 1.5 0 2.2 0 3.7 0 c 0.7 0 1.2 0.8 1.3 2.2 c 1.7 12.1 3.3 24.2 5 36.3 c -1.6 -0.1 -2.4 -0.1 -4 -0.3 C 469.7 251.4 469.5 249.3 469 245.3 z M 468.1 238.7 c -0.6 -4.7 -0.9 -7 -1.4 -11.7 c -0.1 -1.2 -0.3 -2.4 -0.3 -3.6 c -0.3 0 -0.4 0 -0.7 0 c -0.2 1.4 -0.2 2.1 -0.4 3.6 c -0.6 4.6 -0.9 6.9 -1.5 11.5 C 465.5 238.6 466.4 238.6 468.1 238.7 z"
                            style="fill: rgb(255, 255, 255)" />
                        <path class="st3"
                            d="M 487.8 217.9 c -0.1 2.3 -0.2 3.5 -0.3 5.9 c -1.5 -0.1 -3.7 -0.2 -5.5 -0.2 c -1.9 0 -2.6 0.2 -2.6 3.5 c 0 2.7 0.5 3.4 1.8 4.4 c 1.3 1 2 1.5 3.4 2.6 c 3.3 2.7 3.7 7.7 3.7 11.4 c 0.1 4.3 -0.7 11.5 -6.6 11.1 c -1.1 -0.1 -3.4 -0.3 -6.1 -1.7 c 0.1 -2.5 0.1 -3.7 0.2 -6.1 c 3.3 0.3 4.7 0.4 5.9 0.5 c 2.1 0 2.6 -0.6 2.6 -3.7 c 0 -2.8 -0.5 -3.4 -1.7 -4.3 c -1.4 -1.1 -2.1 -1.7 -3.6 -2.8 c -3.2 -2.7 -3.7 -7.5 -3.6 -11.4 c 0 -4.3 0.7 -10.9 6.4 -10.7 C 483.7 216.5 485.8 216.7 487.8 217.9 z"
                            style="fill: rgb(255, 255, 255)" />
                        <path class="st3"
                            d="M 503.7 229.2 c 0 4.1 0.2 12.7 -5.9 12.8 c -1.1 0 -2.3 -0.1 -3.3 -0.4 c 0 4.8 0 9.6 0 14.4 c -1.6 0 -2.3 0.1 -3.9 0.1 c 0 -13 0 -25.9 0 -38.9 c 2.1 -0.5 3.6 -0.4 6.7 -0.5 C 503.6 216.5 503.7 224.7 503.7 229.2 z M 499.8 229.2 c 0 -4.8 -0.6 -6 -2.6 -6 c -1.1 0 -1.6 0 -2.7 0 c 0 4.9 0 7.3 0 12.2 c 1.1 0 1.6 0 2.7 0 C 499.2 235.3 499.8 234 499.8 229.2 z"
                            style="fill: rgb(255, 255, 255)" />
                        <path class="st3"
                            d="M 520.6 235.4 c 0 5.6 0.7 18.9 -7.5 20 c -8.5 1 -7.6 -14.5 -7.6 -19.1 c 0 -5.1 -0.9 -19.8 7.5 -19.8 C 521.3 216.4 520.6 230.3 520.6 235.4 z M 509.6 236.1 c 0 3.4 -0.1 12.9 3.5 12.6 c 3.5 -0.3 3.4 -9.6 3.4 -13 c 0 -3.1 -0.1 -12.7 -3.5 -12.6 C 509.3 223.2 509.6 232.5 509.6 236.1 z"
                            style="fill: rgb(255, 255, 255)" />
                        <path class="st3"
                            d="M 538.1 247.9 c 0 1.8 -0.4 2.8 -1.4 3 c -1 0.2 -1.5 0.3 -2.4 0.5 c -0.8 0.2 -1.2 -0.5 -1.6 -2 c -1.6 -6 -3.2 -12.1 -4.7 -18.1 c -0.4 -1.5 -0.9 -3.7 -1.1 -5.5 c -0.1 0 -0.2 0 -0.3 0 c 0.1 1.9 0.2 3.8 0.2 5.7 c 0 7.1 0.1 14.1 0.1 21.2 c -1.5 0.2 -2.2 0.4 -3.7 0.6 c -0.1 -11.1 -0.1 -22.2 -0.2 -33.4 c 0 -1.9 0.5 -2.9 1.4 -2.9 c 1 0 1.4 0 2.4 0 c 0.8 0 1.2 0.8 1.6 2.3 c 1.5 5.9 3 11.9 4.6 17.8 c 0.4 1.5 0.9 3.5 1.3 5.4 c 0.1 0 0.2 0 0.3 0 c -0.1 -1.9 -0.2 -3.8 -0.2 -5.7 c 0 -6.6 -0.1 -13.2 -0.1 -19.7 c 1.5 0 2.2 0 3.7 0 C 538 227.4 538 237.6 538.1 247.9 z"
                            style="fill: rgb(255, 255, 255)" />
                        <path class="st3"
                            d="M 552.5 217.6 c -0.1 1.8 -0.1 2.7 -0.2 4.5 c -1.5 0 -3.7 0.1 -5.5 0.1 c -1.9 0.1 -2.6 0.3 -2.5 3.1 c 0 2.2 0.5 2.8 1.9 3.5 c 1.3 0.7 2 1 3.4 1.7 c 2.8 1.4 3.6 4.1 3.8 8.3 c 0.2 4.7 -1.5 9.1 -6.5 10.4 c -1.1 0.3 -3.3 0.7 -6.1 0.2 c 0.1 -2.1 0.1 -3.2 0.2 -5.3 c 3.3 -0.5 4.7 -0.7 5.8 -0.9 c 2 -0.4 2.6 -1.1 2.6 -3.6 c 0 -2.2 -0.5 -2.6 -1.7 -3.1 c -1.4 -0.7 -2.1 -1 -3.6 -1.7 c -2.7 -1.4 -3.6 -4.4 -3.7 -9.2 c -0.1 -4.3 1.1 -9.4 6.4 -9.2 C 548.3 216.5 550.5 216.7 552.5 217.6 z"
                            style="fill: rgb(255, 255, 255)" />
                        <path class="st3"
                            d="M 567 238.1 c 0.1 1.6 0.1 2.5 0.2 4.1 c -2.4 1.2 -5.4 2.2 -8.1 3 c -2.3 0.7 -3.8 -1.1 -3.9 -4.7 c 0 -5.9 -0.1 -11.8 -0.1 -17.7 c 0 -3.6 1.5 -5.9 3.9 -5.9 c 2.7 0 5.8 0 8.2 0.3 c -0.1 1.7 -0.1 2.5 -0.2 4.2 c -2.7 0.2 -4.1 0.3 -6.8 0.4 c -0.8 0 -1.2 0.7 -1.2 2.2 c 0 1.7 0 2.6 0 4.3 c 2.8 -0.4 4.2 -0.5 7 -0.9 c 0 1.7 0 2.5 0 4.1 c -2.8 0.5 -4.2 0.8 -7 1.3 c 0 2.2 0 3.3 0 5.4 c 0 1.5 0.4 2 1.2 1.8 C 563 239.2 564.3 238.9 567 238.1 z"
                            style="fill: rgb(255, 255, 255)" />
                    </g>
                </g>
                <g>
                    <g>
                        <path class="st19"
                            d="M 487.3 270 c -29.3 0 -58.6 -5.5 -86.4 -16.6 c -2.4 -1 -4 -3.2 -4 -5.8 V 212.1 c 0 -3.5 2.8 -6.3 6.3 -6.3 l 16.6 0 l 2.7 2.6 c 0.5 0.5 0.2 1.5 -0.6 1.5 l -18.8 0 c -1.2 0 -2.2 1 -2.2 2.2 v 35.4 c 0 0.9 0.5 1.7 1.4 2.1 c 54.8 21.8 115.1 21.8 169.9 0 c 0.9 -0.3 1.4 -1.1 1.4 -2.1 V 212.1 c 0 -1.2 -1 -2.2 -2.2 -2.2 l -18.7 0 c -0.8 0 -1.1 -0.9 -0.6 -1.5 l 2.7 -2.6 h 16.6 c 3.5 0 6.3 2.8 6.3 6.3 v 35.4 c 0 2.6 -1.6 4.9 -4 5.8 C 545.9 264.5 516.6 270 487.3 270 z"
                            style="fill: rgb(227, 190, 23)" />
                    </g>
                </g>
            </g>
        </g>
    </g>
</svg>
