<?xml version="1.0" encoding="UTF-8"?>
<svg xmlns="http://www.w3.org/2000/svg" xmlns:xlink="http://www.w3.org/1999/xlink" width="500px" height="480px" viewBox="0 0 500 250" version="1.1">
<g transform="matrix(1,0,0,1,4.2,-7.7)" id="surface1">
<path transform="matrix(4.7,0,0,4.1,-1002.8,-341.9)" style="fill: rgb(100%, 100%, 100%); fill-rule: nonzero; stroke: none; fill-opacity: 1" d="M 260.6 153.6 C 258.8 153.6 257.1 152.9 255.8 151.7 L 232.7 129.3 C 230.6 127.3 230 124.4 231.1 121.8 L 234.3 114 L 235.7 100.6 C 235.9 98.7 236.9 97 238.4 95.8 L 256.4 82.1 C 257.6 81.2 259.1 80.7 260.6 80.7 C 262.1 80.7 263.5 81.2 264.7 82.1 L 282.7 95.8 C 284.2 97 285.2 98.7 285.4 100.6 L 286.8 114.1 L 290 121.7 C 291.1 124.3 290.5 127.4 288.5 129.3 L 265.3 151.7 C 264.1 152.9 262.4 153.6 260.6 153.6 Z M 260.6 153.6"/>
<path transform="matrix(4.7,0,0,4.1,-1002.8,-341.8)" style="fill: rgb(0%, 0%, 0%); fill-rule: nonzero; stroke: none; fill-opacity: 1" d="M 260.6 152.1 C 259.2 152.1 257.9 151.6 256.8 150.6 L 233.7 128.3 C 232.1 126.7 231.6 124.4 232.4 122.3 L 235.8 114.3 L 237.2 100.7 C 237.3 99.2 238.1 97.9 239.3 97 L 257.3 83.2 C 258.2 82.5 259.4 82.1 260.6 82.1 C 261.7 82.1 262.9 82.5 263.8 83.2 L 281.8 97 C 283 97.9 283.8 99.2 283.9 100.7 L 285.3 114.4 L 288.6 122.3 C 289.5 124.3 289 126.7 287.4 128.3 L 264.3 150.6 C 263.3 151.6 262 152.1 260.6 152.1 Z M 260.6 152.1"/>
<path transform="matrix(4.7,0,0,4.1,-1002.8,-342.1)" style="fill: rgb(0%, 0%, 0%); fill-rule: nonzero; stroke: none; fill-opacity: 1" d="M 286 123.5 L 282.5 115.2 L 281 101.1 C 280.9 100.4 280.6 99.8 280.1 99.4 L 262 85.6 C 261.1 85 259.9 85 259.1 85.6 L 241 99.4 C 240.5 99.8 240.1 100.4 240.1 101.1 L 238.6 115.1 L 235.1 123.5 C 234.7 124.5 234.9 125.5 235.7 126.2 L 258.8 148.6 C 259.8 149.5 261.3 149.5 262.2 148.6 L 285.4 126.2 C 286.2 125.5 286.4 124.4 286 123.5 Z M 286 123.5"/>
<path transform="matrix(4.7,0,0,4.1,-1003.1,-303.4)" style="fill: rgb(100%, 100%, 100%); fill-rule: nonzero; stroke: none; fill-opacity: 1" d="M 240.1 92.5 L 238.2 110.4 L 260.6 122.1 L 283.1 110.4 L 281.2 92.5 C 281.1 91.3 280.5 90.3 279.6 89.6 L 264.6 78.2 C 262.3 76.4 259 76.4 256.6 78.2 L 241.7 89.6 C 240.8 90.3 240.2 91.3 240.1 92.5 Z M 240.1 92.5"/>
<path transform="matrix(4.7,0,0,4.1,-1003,-357.3)" style="fill: rgb(100%, 100%, 100%); fill-rule: nonzero; stroke: none; fill-opacity: 1" d="M 235.2 127.2 L 245.9 101.4 L 260.5 95.4 L 275.2 101.4 L 286 127.2 C 286.4 128.1 286.2 129.2 285.4 129.9 L 262.3 152.2 C 261.3 153.2 259.8 153.2 258.9 152.2 L 235.7 129.9 C 235 129.2 234.8 128.1 235.2 127.2 Z M 235.2 127.2"/>
<path transform="matrix(4.7,0,0,4.1,-1003,-345.3)" style="fill: rgb(0%, 0%, 0%); fill-rule: nonzero; stroke: none; fill-opacity: 1" d="M 241.3 122.8 L 248.4 103.8 L 260.6 94 L 272.8 103.8 L 279.9 122.8 C 280.2 123.7 280 124.7 279.4 125.4 L 262.4 142.6 C 261.4 143.5 259.8 143.5 258.9 142.6 L 241.9 125.4 C 241.2 124.7 241 123.7 241.3 122.8 Z M 241.3 122.8"/>
<path transform="matrix(4.7,0,0,4.1,-1017.8,-414.6)" style="fill: rgb(100%, 100%, 100%); fill-rule: nonzero; stroke: none; fill-opacity: 1" d="M 266.8 152 L 267 150.2 L 265.9 150.2 L 266.2 152 Z M 266.8 152"/>
<path transform="matrix(4.7,0,0,4.1,-1002.5,-428.6)" style="fill: rgb(100%, 100%, 100%); fill-rule: nonzero; stroke: none; fill-opacity: 1" d="M 266.7 155.3 C 266.8 154.9 266.5 154.6 266.2 154.6 L 264.5 154.8 C 264.3 154.8 264.2 154.9 264.1 155.1 L 263.7 155.9 C 263.7 156 263.6 156 263.6 156 L 263.3 156.1 C 263.1 156.1 263 156.1 263 156 L 262.5 154.8 C 262.5 154.6 262.3 154.5 262.1 154.5 L 259 154.5 C 258.8 154.5 258.7 154.6 258.6 154.8 L 258.1 156 C 258.1 156.1 257.9 156.2 257.8 156.2 L 257.5 156.1 C 257.4 156 257.3 156 257.3 156 L 256.9 155.2 C 256.8 155 256.7 154.9 256.6 154.9 L 254.9 154.7 C 254.5 154.7 254.2 155 254.3 155.4 L 254.6 156.6 L 257 159.9 C 257.4 160.5 258.2 160.9 259 160.9 L 262 160.9 C 262.8 160.9 263.6 160.5 264 159.9 L 266.6 156.3 Z M 266.7 155.3"/>
<path transform="matrix(4.7,0,0,4.1,-987.6,-414.6)" style="fill: rgb(100%, 100%, 100%); fill-rule: nonzero; stroke: none; fill-opacity: 1" d="M 254.9 152 L 255.3 150.2 L 254.2 150.2 L 254.3 152 Z M 254.9 152"/>
<path transform="matrix(4.7,0,0,4.1,-1047.6,-393.5)" style="fill: rgb(100%, 100%, 100%); fill-rule: nonzero; stroke: none; fill-opacity: 1" d="M 278.2 141.4 C 278.3 141.4 278.4 141.2 278.4 141.1 C 278.4 141.2 278.3 141.4 278.2 141.4 Z M 278.2 141.4"/>
<path transform="matrix(4.7,0,0,4.1,-1002.4,-365.5)" style="fill: rgb(100%, 100%, 100%); fill-rule: nonzero; stroke: none; fill-opacity: 1" d="M 252.5 133.7 C 252.5 133.9 252.7 134.1 253 134.1 L 254.8 134.1 L 255.1 131.9 C 255.2 131.8 255.3 131.7 255.5 131.7 L 256.4 132.1 L 256.9 134 C 256.9 134.1 257 134.2 257.1 134.2 L 259.3 134.1 C 259.4 134.1 259.5 134.1 259.5 134 L 259.9 132.3 C 260 132.2 260.1 132.1 260.2 132.1 L 260.7 132.1 C 260.9 132.1 261 132.2 261 132.3 L 261.4 133.9 C 261.4 134 261.5 134.1 261.6 134.1 L 263.9 134.1 C 264 134.1 264.1 134 264.1 133.9 L 264.5 132.1 L 265.6 131.8 C 265.7 131.8 265.9 131.9 265.9 132 L 266.1 134.1 L 268 133.9 C 268.2 133.9 268.3 133.7 268.4 133.6 L 268.5 133 L 266.4 122.1 L 254.6 122.1 L 252.2 134.1 L 252.4 133.1 Z M 252.5 133.7"/>
<path transform="matrix(4.7,0,0,4.1,-978,-389.8)" style="fill: rgb(100%, 100%, 100%); fill-rule: nonzero; stroke: none; fill-opacity: 1" d="M 250.4 138.4 L 250.2 140.6 L 251.4 140.6 L 251 138.4 Z M 250.4 138.4"/>
<path transform="matrix(4.7,0,0,4.1,-1003.1,-389.8)" style="fill: rgb(100%, 100%, 100%); fill-rule: nonzero; stroke: none; fill-opacity: 1" d="M 260.5 138.4 L 260.1 140.6 L 261.2 140.6 L 260.9 138.4 Z M 260.5 138.4"/>
<path transform="matrix(4.7,0,0,4.1,-1027.9,-389.8)" style="fill: rgb(100%, 100%, 100%); fill-rule: nonzero; stroke: none; fill-opacity: 1" d="M 270.3 138.4 L 269.9 140.6 L 271.1 140.6 L 270.9 138.4 Z M 270.3 138.4"/>
<path transform="matrix(4.7,0,0,4.1,-1003.1,-309)" style="fill: rgb(100%, 100%, 100%); fill-rule: nonzero; stroke: none; fill-opacity: 1" d="M 246.8 94.8 L 244.3 107.3 L 260.6 113.6 L 277 107.3 L 274.4 94.8 L 260.6 90.1 Z M 246.8 94.8"/>
<path transform="matrix(4.7,0,0,4.1,-1059.1,-340.7)" style="fill: rgb(100%, 100%, 100%); fill-rule: nonzero; stroke: none; fill-opacity: 1" d="M 286.8 125.5 L 276.8 123.8 C 275.5 123.6 274.6 122.3 274.8 121 L 276.7 110.1 C 277.1 108.4 279.1 107.5 280.6 108.6 L 289.6 115 C 290.2 115.4 290.6 116 290.6 116.7 L 290.7 117.9 C 290.9 119.4 290.7 121 290.1 122.4 L 289.5 123.9 C 289.1 125 288 125.6 286.8 125.5 Z M 286.8 125.5"/>
<path transform="matrix(4.7,0,0,4.1,-1077.5,-358)" style="fill: rgb(0%, 0%, 0%); fill-rule: nonzero; stroke: none; fill-opacity: 1" d="M 291 128.2 L 286.4 127.4 C 286.1 127.4 286.1 127 286.4 127 L 289.7 126.2 C 290.2 126.1 290.6 125.8 290.9 125.3 L 292.9 121.3 C 293 121 293.3 121.1 293.4 121.3 L 293.5 122.6 C 293.5 123 293.5 123.4 293.4 123.8 L 291.8 127.7 C 291.6 128 291.3 128.3 291 128.2 Z M 291 128.2"/>
<path transform="matrix(4.7,0,0,4.1,-946.3,-340.3)" style="fill: rgb(100%, 100%, 100%); fill-rule: nonzero; stroke: none; fill-opacity: 1" d="M 244.2 123.8 L 234.2 125.4 C 233 125.6 231.9 124.9 231.5 123.9 L 230.9 122.3 C 230.3 120.9 230.1 119.4 230.3 117.9 L 230.4 116.7 C 230.5 115.9 230.8 115.3 231.4 114.9 L 240.5 108.5 C 241.9 107.5 244 108.3 244.3 110.1 L 246.2 120.9 C 246.4 122.3 245.5 123.5 244.2 123.8 Z M 244.2 123.8"/>
<path transform="matrix(4.7,0,0,4.1,-1003.1,-391)" style="fill: rgb(0%, 0%, 0%); fill-rule: nonzero; stroke: none; fill-opacity: 1" d="M 260.4 138.7 L 260.8 138.7 L 261.3 141.5 L 260 141.5 Z M 260.4 138.7"/>
<path transform="matrix(4.7,0,0,4.1,-987.9,-412.5)" style="fill: rgb(0%, 0%, 0%); fill-rule: nonzero; stroke: none; fill-opacity: 1" d="M 254.1 148.8 L 255.5 148.8 L 255 151.5 L 254.4 151.5 Z M 254.1 148.8"/>
<path transform="matrix(4.7,0,0,4.1,-1027.9,-391)" style="fill: rgb(0%, 0%, 0%); fill-rule: nonzero; stroke: none; fill-opacity: 1" d="M 270.3 138.7 L 270.9 138.7 L 271.2 141.5 L 269.8 141.5 Z M 270.3 138.7"/>
<path transform="matrix(4.7,0,0,4.1,-1017.5,-412.5)" style="fill: rgb(0%, 0%, 0%); fill-rule: nonzero; stroke: none; fill-opacity: 1" d="M 265.7 148.8 L 267 148.8 L 266.8 151.5 L 266.2 151.5 Z M 265.7 148.8"/>
<path transform="matrix(4.7,0,0,4.1,-978.3,-391)" style="fill: rgb(0%, 0%, 0%); fill-rule: nonzero; stroke: none; fill-opacity: 1" d="M 250.4 138.7 L 251 138.7 L 251.5 141.5 L 250.2 141.5 Z M 250.4 138.7"/>
<path transform="matrix(4.7,0,0,4.1,-1002.6,-354.7)" style="fill: rgb(0%, 0%, 0%); fill-rule: nonzero; stroke: none; fill-opacity: 1" d="M 258.2 124.7 L 260.1 121.4 C 260.3 121.1 260.7 121.1 260.9 121.4 L 262.8 124.7 C 263 125.1 262.6 125.6 262.2 125.4 L 260.8 124.9 C 260.6 124.8 260.4 124.8 260.1 124.9 L 258.8 125.4 C 258.4 125.6 258 125.1 258.2 124.7 Z M 258.2 124.7"/>
<path transform="matrix(4.7,0,0,4.1,-1002.8,-278.2)" style="fill: rgb(100%, 100%, 100%); fill-rule: nonzero; stroke: none; fill-opacity: 1" d="M 275.8 92.6 L 275.3 91.2 C 274.3 88.4 272.8 86.1 269.3 85.3 L 260.5 82.3 L 251.7 85.1 C 249 86.2 246.8 88.4 245.7 91.2 L 245.3 92.4 L 247.2 90.9 C 250.7 88.1 254.9 86.4 259.3 86 L 260.8 85.7 L 264.3 89.7 L 264.8 89.7 C 267.6 89.7 270.5 90.3 273.1 91.4 Z M 275.8 92.6"/>
<path transform="matrix(4.7,0,0,4.1,-1020.4,-293.9)" style="fill: rgb(100%, 100%, 100%); fill-rule: nonzero; stroke: none; fill-opacity: 1" d="M 267.8 88.2 L 262.9 94.8 L 267.6 93.6 L 263.4 101.8 L 264.5 101.2 L 272.3 90.1 L 269.3 90.1 L 270.3 88.9 Z M 267.8 88.2"/>
<path transform="matrix(4.7,0,0,4.1,-1008.8,-281.7)" style="fill: rgb(0%, 0%, 0%); fill-rule: nonzero; stroke: none; fill-opacity: 1" d="M 263.3 79.6 L 258.6 92.2 L 263.3 91 L 260.9 98.6 L 261.9 98 L 267.4 87.6 L 264.2 87.8 L 267.3 82.8 Z M 263.3 79.6"/>
<path transform="matrix(4.7,0,0,4.1,-1017.5,-298.7)" style="fill: rgb(0%, 0%, 0%); fill-rule: nonzero; stroke: none; fill-opacity: 1" d="M 268.5 91.9 L 263.6 102.4 L 263.7 102.3 L 269.2 91.9 Z M 268.5 91.9"/>
<path transform="matrix(4.7,0,0,4.1,-1021.9,-263.8)" style="fill: rgb(100%, 100%, 100%); fill-rule: nonzero; stroke: none; fill-opacity: 1" d="M 269.6 78.1 L 266.3 83.6 L 267 83.5 L 270.1 78.5 Z M 269.6 78.1"/>
<path transform="matrix(4.7,0,0,4.1,-1054,-333.1)" style="fill: rgb(0%, 0%, 0%); fill-rule: nonzero; stroke: none; fill-opacity: 1" d="M 284.9 107.5 C 285.7 116.1 278.9 116.6 275 114.6 C 279.4 117.7 286.2 118.3 284.9 107.5 Z M 284.9 107.5"/>
<path transform="matrix(4.7,0,0,4.1,-1046.5,-334.2)" style="fill: rgb(0%, 0%, 0%); fill-rule: nonzero; stroke: none; fill-opacity: 1" d="M 283.5 107.9 C 283.5 107.9 282.4 109.4 278.1 110.9 C 278.5 111.2 278.7 111.6 278.7 112.2 C 278.7 113 278 113.7 277.1 113.7 C 276.2 113.7 275.6 112.9 275.6 112 C 275.6 111.9 275.6 111.8 275.6 111.6 C 274.3 112 272.8 112.3 271 112.6 C 272.5 116.5 284.6 119.2 283.5 107.9 Z M 283.5 107.9"/>
<path transform="matrix(4.7,0,0,4.1,-1043,-328.8)" style="fill: rgb(100%, 100%, 100%); fill-rule: nonzero; stroke: none; fill-opacity: 1" d="M 274.9 110.9 C 274.9 111.8 275.6 112.5 276.5 112.6 C 277.3 112.6 278.1 111.9 278.1 111 C 278.1 110.5 277.9 110 277.5 109.8 C 276.8 110 276 110.3 275 110.5 C 274.9 110.6 274.9 110.8 274.9 110.9 Z M 274.9 110.9"/>
<path transform="matrix(4.7,0,0,4.1,-951.1,-333.1)" style="fill: rgb(0%, 0%, 0%); fill-rule: nonzero; stroke: none; fill-opacity: 1" d="M 236.1 107.5 C 235.2 116.1 242 116.6 246 114.6 C 241.6 117.7 234.7 118.3 236.1 107.5 Z M 236.1 107.5"/>
<path transform="matrix(4.7,0,0,4.1,-958.4,-334.2)" style="fill: rgb(0%, 0%, 0%); fill-rule: nonzero; stroke: none; fill-opacity: 1" d="M 237.5 107.9 C 237.5 107.9 238.6 109.4 242.8 110.9 C 242.4 111.2 242.2 111.6 242.2 112.2 C 242.2 113 242.9 113.7 243.8 113.7 C 244.7 113.7 245.4 112.9 245.4 112 C 245.4 111.9 245.3 111.8 245.3 111.6 C 246.6 112 248.2 112.3 249.9 112.6 C 248.4 116.5 236.3 119.2 237.5 107.9 Z M 237.5 107.9"/>
<path transform="matrix(4.7,0,0,4.1,-962.2,-328.8)" style="fill: rgb(100%, 100%, 100%); fill-rule: nonzero; stroke: none; fill-opacity: 1" d="M 246.2 110.9 C 246.2 111.8 245.5 112.5 244.7 112.6 C 243.8 112.6 243 111.9 243 111 C 243 110.5 243.2 110 243.6 109.8 C 244.3 110 245.1 110.3 246.1 110.5 C 246.2 110.6 246.2 110.8 246.2 110.9 Z M 246.2 110.9"/>
<path transform="matrix(4.7,0,0,4.1,-948.5,-304.2)" style="fill: rgb(0%, 0%, 0%); fill-rule: nonzero; stroke: none; fill-opacity: 1" d="M 246.6 103.4 C 242.4 100 240.9 95.7 231.8 97.7 C 231.8 97.7 232 98.4 232.1 99.3 C 237.9 96.2 241.1 100.6 246.6 103.4 Z M 246.6 103.4"/>
<path transform="matrix(4.7,0,0,4.1,-949,-305.1)" style="fill: rgb(0%, 0%, 0%); fill-rule: nonzero; stroke: none; fill-opacity: 1" d="M 246.8 103.6 C 241.8 102.5 238.6 97 232.3 101.1 C 232.3 99.8 232.2 99.5 232.2 99.5 C 238 96.4 241.3 100.8 246.8 103.6 Z M 246.8 103.6"/>
<path transform="matrix(4.7,0,0,4.1,-1055.6,-304.2)" style="fill: rgb(0%, 0%, 0%); fill-rule: nonzero; stroke: none; fill-opacity: 1" d="M 288.4 99.2 C 288.5 98.4 288.7 97.7 288.7 97.7 C 279.6 95.7 278.1 100.1 273.9 103.4 C 274 103.4 274.1 103.3 274.2 103.3 C 279.5 100.5 282.7 96.3 288.4 99.2 Z M 288.4 99.2"/>
<path transform="matrix(4.7,0,0,4.1,-928.1,-358)" style="fill: rgb(0%, 0%, 0%); fill-rule: nonzero; stroke: none; fill-opacity: 1" d="M 229.9 128.2 L 234.5 127.4 C 234.8 127.4 234.8 127 234.5 127 L 231.2 126.2 C 230.7 126.1 230.3 125.8 230 125.3 L 228 121.3 C 227.9 121 227.6 121.1 227.5 121.3 L 227.4 122.6 C 227.4 123 227.4 123.4 227.5 123.8 L 229.1 127.7 C 229.3 128 229.6 128.3 229.9 128.2 Z M 229.9 128.2"/>
<path transform="matrix(4.7,0,0,4.1,-1002.8,-416.7)" style="fill: rgb(100%, 100%, 100%); fill-rule: nonzero; stroke: none; fill-opacity: 1" d="M 254.7 153.7 L 253.2 151.6 C 252.9 151.3 253.2 150.8 253.6 150.8 L 257.2 150.8 L 257.4 152.6 L 258 152.6 L 258.3 150.8 L 262.7 150.8 L 263.1 152.6 L 263.7 152.6 L 263.8 150.8 L 267.5 150.8 C 267.9 150.8 268.2 151.3 267.9 151.6 L 266.7 153.4 L 266.8 152.4 C 266.8 152.1 266.5 151.8 266.2 151.8 L 264.5 151.9 C 264.3 151.9 264.2 152.1 264.1 152.2 L 263.7 153.1 C 263.7 153.1 263.7 153.2 263.6 153.2 L 263.3 153.3 C 263.2 153.3 263 153.3 263 153.1 L 262.6 151.9 C 262.5 151.7 262.3 151.6 262.1 151.6 L 259.1 151.7 C 258.9 151.7 258.7 151.8 258.6 151.9 L 258.1 153.2 C 258.1 153.3 257.9 153.4 257.8 153.3 L 257.5 153.2 C 257.4 153.2 257.4 153.2 257.3 153.1 L 256.9 152.3 C 256.9 152.2 256.7 152.1 256.6 152.1 L 254.9 151.9 C 254.5 151.8 254.2 152.2 254.3 152.6 Z M 254.7 153.7"/>
<path transform="matrix(4.7,0,0,4.1,-1045,-371.3)" style="fill: rgb(0%, 0%, 0%); fill-rule: nonzero; stroke: none; fill-opacity: 1" d="M 277.8 131.9 L 276.6 129.4 L 277.2 132.5 Z M 277.8 131.9"/>
<path transform="matrix(4.7,0,0,4.1,-961,-371.3)" style="fill: rgb(0%, 0%, 0%); fill-rule: nonzero; stroke: none; fill-opacity: 1" d="M 243.6 131.9 L 244.9 129.4 L 244.3 132.5 Z M 243.6 131.9"/>
<path transform="matrix(4.7,0,0,4.1,-1089.9,-333.6)" style="fill: rgb(0%, 0%, 0%); fill-rule: nonzero; stroke: none; fill-opacity: 1" d="M 295.1 112.2 C 295.1 112.2 295.1 113.1 294.2 114.2 C 294.9 113.7 295.3 113.1 295.6 112.7 Z M 295.1 112.2"/>
<path transform="matrix(4.7,0,0,4.1,-916.2,-333.1)" style="fill: rgb(0%, 0%, 0%); fill-rule: nonzero; stroke: none; fill-opacity: 1" d="M 226.3 111.8 C 226.3 111.8 226.2 112.8 227.2 113.9 C 226.5 113.4 226.1 112.8 225.9 112.4 Z M 226.3 111.8"/>
<path transform="matrix(4.7,0,0,4.1,-1003.1,-387.8)" style="fill: rgb(0%, 0%, 0%); fill-rule: nonzero; stroke: none; fill-opacity: 1" d="M 268.7 138.5 L 268.9 139.6 C 269 139.9 268.7 140.2 268.4 140.2 L 265.8 140.2 L 265.6 138 L 265 138 L 264.6 140.2 L 261.2 140.2 L 260.8 138 L 260.5 138 L 260.1 140.2 L 256.7 140.2 L 256.3 138 L 255.6 138 L 255.5 140.2 L 252.8 140.2 C 252.5 140.2 252.3 139.9 252.4 139.6 L 252.6 138.6 L 252.7 139.2 C 252.7 139.4 252.9 139.6 253.2 139.6 L 255 139.6 L 255.3 137.4 C 255.4 137.3 255.5 137.2 255.7 137.3 L 256.6 137.6 L 257.1 139.5 C 257.1 139.6 257.2 139.7 257.3 139.7 L 259.5 139.6 C 259.6 139.6 259.7 139.6 259.7 139.5 L 260.1 137.8 C 260.2 137.7 260.3 137.6 260.4 137.6 L 261 137.6 C 261.1 137.6 261.2 137.7 261.2 137.8 L 261.6 139.4 C 261.6 139.5 261.7 139.6 261.8 139.6 L 264.1 139.6 C 264.2 139.6 264.3 139.5 264.3 139.4 L 264.7 137.6 L 265.8 137.3 C 265.9 137.3 266.1 137.4 266.1 137.5 L 266.3 139.6 L 268.2 139.4 C 268.4 139.4 268.5 139.3 268.6 139.1 Z M 268.7 138.5"/>
<path transform="matrix(4.7,0,0,4.1,-1055.5,-305.1)" style="fill: rgb(0%, 0%, 0%); fill-rule: nonzero; stroke: none; fill-opacity: 1" d="M 274 103.6 C 278.9 102.5 282.1 97 288.4 101.1 C 288.4 99.8 288.6 99.5 288.6 99.5 C 282.7 96.4 279.5 100.8 274 103.6 Z M 274 103.6"/>
<path transform="matrix(4.7,0,0,4.1,-1002.2,-271)" style="fill: rgb(100%, 100%, 100%); fill-rule: nonzero; stroke: none; fill-opacity: 1" d="M 244.1 97 L 246.8 89.7 C 247.7 87.2 249.3 85 251.4 83.3 L 258.9 78.3 C 259.8 77.7 260.8 77.7 261.6 78.3 L 269.4 83.4 C 271.5 85 273.1 87.2 274 89.7 L 276.7 96.8 L 281.1 95.2 L 275 80.7 L 261.8 72.1 C 260.9 71.5 259.7 71.6 258.8 72.3 L 243.5 85.9 L 239.4 95.6 Z M 244.1 97"/>
<path transform="matrix(4.7,0,0,4.1,-969.9,-316.4)" style="fill: rgb(100%, 100%, 100%); fill-rule: nonzero; stroke: none; fill-opacity: 1" d="M 233.4 94.8 L 232.5 103 L 227.8 117 C 227.5 118 227.8 119 228.6 119.7 L 229.7 120.6 L 241.3 131.7 L 231.5 119.5 C 231 118.8 230.8 117.9 231.2 117.1 L 238.8 98 C 239.2 97.1 239.7 96.3 240.4 95.6 L 252.5 83.2 C 253.3 82.4 254.4 82.2 255.4 82.7 L 268.2 89.1 L 255.4 79.4 C 254.5 78.7 253.3 78.7 252.4 79.4 L 234.4 93.1 C 233.8 93.5 233.5 94.1 233.4 94.8 Z M 233.4 94.8"/>
<path transform="matrix(4.7,0,0,4.1,-892.6,-305.8)" style="fill: rgb(0%, 0%, 0%); fill-rule: nonzero; stroke: none; fill-opacity: 1" d="M 213.9 106.5 L 220.6 94.1 L 213.9 103.4 Z M 213.9 106.5"/>
<path transform="matrix(4.7,0,0,4.1,-1093.4,-303.2)" style="fill: rgb(100%, 100%, 100%); fill-rule: nonzero; stroke: none; fill-opacity: 1" d="M 296 87.7 L 299.9 90.5 L 304.7 113.3 L 295.9 92.4 L 287.6 85.1 Z M 296 87.7"/>
<path transform="matrix(4.7,0,0,4.1,-1113.8,-393.8)" style="fill: rgb(0%, 0%, 0%); fill-rule: nonzero; stroke: none; fill-opacity: 1" d="M 308.2 139.4 L 300.2 143.5 L 308.2 140.8 Z M 308.2 139.4"/>
<path transform="matrix(4.7,0,0,4.1,-1053.5,-437.9)" style="fill: rgb(100%, 100%, 100%); fill-rule: nonzero; stroke: none; fill-opacity: 1" d="M 293.3 152.2 L 274.1 170.7 L 272.6 171.3 C 271.7 171.7 270.6 171.5 269.9 170.8 L 267.7 168.5 L 269.9 169 C 270.6 169.2 271.4 169 272 168.5 Z M 293.3 152.2"/>
<path transform="matrix(4.7,0,0,4.1,-1003.1,-459.3)" style="fill: rgb(0%, 0%, 0%); fill-rule: nonzero; stroke: none; fill-opacity: 1" d="M 229.1 161.9 L 229.1 174.5 C 229.1 175.1 229.5 175.7 230 176 C 249.7 183.8 271.6 183.8 291.2 176 C 291.8 175.8 292.2 175.2 292.2 174.5 L 292.2 161.9 C 292.2 161.1 291.5 160.4 290.7 160.4 L 230.6 160.4 C 229.7 160.4 229.1 161 229.1 161.9 Z M 229.1 161.9"/>
<path transform="matrix(4.7,0,0,4.1,-867.8,-446.7)" style="fill: rgb(100%, 100%, 100%); fill-rule: nonzero; stroke: none; fill-opacity: 1" d="M 210.9 161.6 C 211 165 211 168.5 211.1 171.9 C 210.5 171.7 210.3 171.7 209.8 171.5 C 209.7 168.5 209.7 165.5 209.6 162.5 C 209.5 162.5 209.5 162.5 209.4 162.5 C 209.1 164.7 208.8 166.8 208.5 169 C 208.4 169.5 208.2 169.7 207.9 169.6 C 207.5 169.5 207.4 169.5 207 169.3 C 206.7 169.3 206.5 169 206.4 168.5 C 206.2 166.4 205.8 164.3 205.5 162.3 C 205.4 162.3 205.4 162.3 205.4 162.3 C 205.3 164.9 205.2 167.5 205.2 170.2 C 204.7 170 204.4 169.9 203.9 169.7 C 204 167 204 164.2 204.1 161.4 C 204.2 160.9 204.3 160.6 204.7 160.6 C 205.2 160.6 205.5 160.6 206 160.6 C 206.3 160.6 206.5 160.9 206.5 161.3 C 206.8 163.1 207 164.7 207.3 166.5 C 207.4 167 207.4 167.5 207.4 167.9 C 207.5 167.9 207.5 167.9 207.5 168 C 207.6 167.5 207.7 167 207.7 166.5 C 208 164.8 208.3 163.1 208.5 161.4 C 208.6 160.9 208.8 160.6 209.1 160.6 C 209.6 160.6 209.9 160.6 210.4 160.6 C 210.8 160.6 210.9 161 210.9 161.6 Z M 210.9 161.6"/>
<path transform="matrix(4.7,0,0,4.1,-904.4,-449.2)" style="fill: rgb(100%, 100%, 100%); fill-rule: nonzero; stroke: none; fill-opacity: 1" d="M 224 171.4 C 224.1 172.2 224.1 172.6 224.1 173.4 C 223.2 173.4 222.1 173.2 221.1 173 C 220.3 172.8 219.8 171.8 219.8 170.4 C 219.8 168.1 219.8 165.7 219.8 163.4 C 219.8 162 220.4 161.1 221.2 161.1 C 222.2 161.1 223.3 161.1 224.1 161.3 C 224.1 162.1 224.1 162.5 224.1 163.3 C 223.1 163.3 222.6 163.2 221.6 163.2 C 221.3 163.2 221.2 163.4 221.2 164.1 C 221.2 164.8 221.2 165.1 221.2 165.8 C 222.2 165.9 222.7 166 223.7 166.1 C 223.7 166.8 223.7 167.2 223.7 168 C 222.7 167.9 222.2 167.8 221.2 167.7 C 221.2 168.6 221.2 169.1 221.2 170 C 221.2 170.7 221.3 170.9 221.6 171 C 222.6 171.2 223.1 171.2 224 171.4 Z M 224 171.4"/>
<path transform="matrix(4.7,0,0,4.1,-933.4,-451)" style="fill: rgb(100%, 100%, 100%); fill-rule: nonzero; stroke: none; fill-opacity: 1" d="M 235.9 163.8 C 235.1 163.7 234.7 163.7 234 163.7 C 233.9 167.3 233.9 170.8 233.9 174.4 C 233.3 174.3 233 174.3 232.5 174.2 C 232.5 170.7 232.5 167.2 232.6 163.7 C 231.8 163.7 231.4 163.7 230.7 163.6 C 230.7 162.7 230.7 162.3 230.7 161.4 C 232.4 161.4 234.1 161.4 235.9 161.4 C 235.9 162.3 235.9 162.8 235.9 163.8 Z M 235.9 163.8"/>
<path transform="matrix(4.7,0,0,4.1,-961.1,-452.6)" style="fill: rgb(100%, 100%, 100%); fill-rule: nonzero; stroke: none; fill-opacity: 1" d="M 245.4 171.9 C 244.5 171.9 244 171.8 243.2 171.8 C 243 173.2 242.9 173.9 242.7 175.2 C 242.1 175.2 241.9 175.1 241.3 175.1 C 241.9 170.9 242.5 166.8 243.2 162.6 C 243.3 162.1 243.4 161.8 243.7 161.8 C 244.2 161.8 244.5 161.8 245 161.8 C 245.3 161.8 245.4 162.1 245.5 162.6 C 246.1 166.9 246.6 171.3 247.3 175.6 C 246.7 175.6 246.4 175.6 245.8 175.5 C 245.6 174.1 245.5 173.3 245.4 171.9 Z M 245 169.6 C 244.8 167.9 244.7 167.1 244.5 165.4 C 244.5 164.9 244.4 164.5 244.4 164.1 C 244.3 164.1 244.3 164.1 244.2 164.1 C 244.1 164.6 244.1 164.8 244 165.4 C 243.8 167 243.7 167.8 243.5 169.5 C 244.1 169.5 244.4 169.5 245 169.6 Z M 245 169.6"/>
<path transform="matrix(4.7,0,0,4.1,-992.1,-453)" style="fill: rgb(100%, 100%, 100%); fill-rule: nonzero; stroke: none; fill-opacity: 1" d="M 258.6 162.2 C 258.5 163 258.5 163.4 258.5 164.3 C 257.9 164.3 257.1 164.2 256.5 164.2 C 255.8 164.2 255.6 164.3 255.6 165.5 C 255.6 166.4 255.8 166.7 256.2 167 C 256.7 167.4 256.9 167.6 257.4 168 C 258.6 168.9 258.8 170.7 258.8 172 C 258.8 173.6 258.5 176.2 256.4 176 C 256 176 255.2 175.9 254.2 175.4 C 254.3 174.5 254.3 174.1 254.3 173.2 C 255.5 173.3 256 173.4 256.4 173.4 C 257.1 173.4 257.3 173.2 257.3 172.1 C 257.3 171.1 257.1 170.9 256.7 170.5 C 256.2 170.2 256 169.9 255.4 169.5 C 254.3 168.6 254.1 166.9 254.1 165.5 C 254.1 163.9 254.4 161.6 256.4 161.7 C 257.1 161.7 257.9 161.8 258.6 162.2 Z M 258.6 162.2"/>
<path transform="matrix(4.7,0,0,4.1,-1022.3,-452.6)" style="fill: rgb(100%, 100%, 100%); fill-rule: nonzero; stroke: none; fill-opacity: 1" d="M 270.5 166.1 C 270.5 167.6 270.6 170.7 268.4 170.7 C 268 170.7 267.6 170.7 267.2 170.6 C 267.2 172.3 267.2 174 267.2 175.7 C 266.7 175.7 266.4 175.8 265.8 175.8 C 265.8 171.1 265.8 166.5 265.8 161.9 C 266.6 161.7 267.1 161.7 268.2 161.7 C 270.5 161.6 270.5 164.5 270.5 166.1 Z M 269.1 166.1 C 269.1 164.4 268.9 164 268.2 164 C 267.8 164 267.6 164 267.2 164 C 267.2 165.8 267.2 166.6 267.2 168.4 C 267.6 168.4 267.8 168.4 268.2 168.4 C 268.9 168.3 269.1 167.9 269.1 166.1 Z M 269.1 166.1"/>
<path transform="matrix(4.7,0,0,4.1,-1052.9,-452.6)" style="fill: rgb(100%, 100%, 100%); fill-rule: nonzero; stroke: none; fill-opacity: 1" d="M 283 168.4 C 283 170.4 283.2 175.1 280.3 175.5 C 277.3 175.9 277.6 170.4 277.6 168.7 C 277.6 166.9 277.3 161.6 280.3 161.6 C 283.2 161.6 283 166.6 283 168.4 Z M 279.1 168.6 C 279.1 169.9 279 173.2 280.3 173.1 C 281.6 173 281.5 169.7 281.5 168.5 C 281.5 167.4 281.5 164 280.3 164 C 279 164 279.1 167.4 279.1 168.6 Z M 279.1 168.6"/>
<path transform="matrix(4.7,0,0,4.1,-1087.3,-450.6)" style="fill: rgb(100%, 100%, 100%); fill-rule: nonzero; stroke: none; fill-opacity: 1" d="M 296.6 172.3 C 296.6 173 296.4 173.3 296.1 173.4 C 295.7 173.5 295.6 173.5 295.2 173.6 C 294.9 173.6 294.8 173.4 294.7 172.9 C 294.1 170.7 293.5 168.5 293 166.4 C 292.8 165.9 292.7 165.1 292.6 164.4 C 292.6 164.4 292.5 164.4 292.5 164.4 C 292.5 165.1 292.6 165.8 292.6 166.5 C 292.6 169 292.6 171.5 292.6 174 C 292.1 174.1 291.8 174.2 291.3 174.2 C 291.2 170.3 291.2 166.3 291.2 162.3 C 291.2 161.6 291.4 161.3 291.7 161.3 C 292.1 161.3 292.2 161.3 292.6 161.3 C 292.8 161.3 293 161.6 293.1 162.1 C 293.7 164.2 294.2 166.4 294.8 168.5 C 294.9 169 295.1 169.7 295.2 170.4 C 295.3 170.4 295.3 170.4 295.3 170.4 C 295.3 169.7 295.3 169 295.3 168.4 C 295.3 166 295.2 163.6 295.2 161.3 C 295.8 161.3 296 161.3 296.6 161.3 C 296.6 165 296.6 168.6 296.6 172.3 Z M 296.6 172.3"/>
<path transform="matrix(4.7,0,0,4.1,-1119.1,-447.4)" style="fill: rgb(100%, 100%, 100%); fill-rule: nonzero; stroke: none; fill-opacity: 1" d="M 308.3 160.9 C 308.2 161.6 308.2 161.9 308.2 162.5 C 307.7 162.5 306.9 162.6 306.2 162.6 C 305.6 162.6 305.3 162.7 305.3 163.7 C 305.3 164.5 305.5 164.7 306 164.9 C 306.5 165.2 306.7 165.3 307.2 165.5 C 308.2 166 308.5 167 308.6 168.5 C 308.7 170.2 308.1 171.7 306.3 172.2 C 305.9 172.3 305.1 172.5 304.1 172.3 C 304.1 171.5 304.1 171.1 304.2 170.4 C 305.3 170.2 305.8 170.1 306.2 170.1 C 306.9 169.9 307.2 169.7 307.2 168.8 C 307.2 168 307 167.9 306.6 167.7 C 306.1 167.4 305.8 167.3 305.3 167.1 C 304.3 166.6 304 165.5 303.9 163.8 C 303.9 162.2 304.3 160.4 306.2 160.5 C 306.8 160.5 307.6 160.6 308.3 160.9 Z M 308.3 160.9"/>
<path transform="matrix(4.7,0,0,4.1,-1147.1,-444.8)" style="fill: rgb(100%, 100%, 100%); fill-rule: nonzero; stroke: none; fill-opacity: 1" d="M 319.4 167.6 C 319.4 168.2 319.4 168.5 319.4 169.1 C 318.6 169.5 317.5 169.9 316.6 170.1 C 315.7 170.4 315.2 169.7 315.2 168.5 C 315.2 166.4 315.1 164.2 315.1 162.1 C 315.1 160.9 315.7 160 316.5 160 C 317.5 160 318.6 160 319.4 160.1 C 319.4 160.7 319.4 161 319.4 161.6 C 318.4 161.7 317.9 161.7 316.9 161.8 C 316.7 161.8 316.5 162 316.5 162.6 C 316.5 163.2 316.5 163.5 316.5 164.1 C 317.5 164 318 163.9 319 163.8 C 319 164.4 319 164.7 319 165.2 C 318 165.4 317.5 165.5 316.5 165.7 C 316.5 166.5 316.5 166.9 316.5 167.6 C 316.5 168.2 316.7 168.4 316.9 168.3 C 317.9 168 318.4 167.9 319.4 167.6 Z M 319.4 167.6"/>
<path transform="matrix(4.7,0,0,4.1,-1002.8,-456)" style="fill: rgb(100%, 100%, 100%); fill-rule: nonzero; stroke: none; fill-opacity: 1" d="M 260.6 181.7 C 250.1 181.7 239.6 179.8 229.7 175.8 C 228.8 175.4 228.3 174.7 228.3 173.7 L 228.3 161.1 C 228.3 159.8 229.3 158.8 230.5 158.8 L 236.5 158.8 L 237.4 159.7 C 237.6 159.9 237.5 160.3 237.2 160.3 L 230.5 160.3 C 230.1 160.3 229.7 160.6 229.7 161.1 L 229.7 173.7 C 229.7 174 229.9 174.3 230.2 174.4 C 249.8 182.2 271.3 182.2 290.9 174.4 C 291.2 174.3 291.4 174.1 291.4 173.7 L 291.4 161.1 C 291.4 160.6 291 160.3 290.6 160.3 L 283.9 160.3 C 283.6 160.3 283.5 159.9 283.7 159.7 L 284.7 158.8 L 290.6 158.8 C 291.8 158.8 292.8 159.8 292.8 161.1 L 292.8 173.7 C 292.8 174.6 292.3 175.4 291.4 175.8 C 281.5 179.8 271 181.7 260.6 181.7 Z M 260.6 181.7"/>
</g>
</svg>
