<?xml version="1.0" encoding="UTF-8"?>
<svg xmlns="http://www.w3.org/2000/svg" xmlns:xlink="http://www.w3.org/1999/xlink" width="500px" height="480px" viewBox="0 0 500 250" version="1.1">
<g transform="matrix(1,0,0,1,4.2,-7.7)" id="surface1">
<path transform="matrix(4.8,0,0,4.3,-1019.6,-364.4)" style="fill: rgb(100%, 100%, 100%); fill-rule: nonzero; stroke: none; fill-opacity: 1" d="M 263.7 153.4 C 261.9 153.4 260.2 152.7 258.9 151.5 L 235.8 129.1 C 233.7 127.1 233.1 124.2 234.2 121.6 L 237.4 113.8 L 238.8 100.4 C 239 98.5 240 96.8 241.5 95.6 L 259.5 81.9 C 260.7 81 262.2 80.5 263.7 80.5 C 265.2 80.5 266.6 81 267.8 81.9 L 285.8 95.6 C 287.3 96.8 288.3 98.5 288.5 100.4 L 289.9 113.9 L 293.1 121.5 C 294.2 124.1 293.6 127.2 291.6 129.1 L 268.4 151.5 C 267.2 152.7 265.5 153.4 263.7 153.4 Z M 263.7 153.4"/>
<path transform="matrix(4.8,0,0,4.3,-1019.6,-364.3)" style="fill: rgb(0%, 0%, 0%); fill-rule: nonzero; stroke: none; fill-opacity: 1" d="M 263.7 151.9 C 262.3 151.9 261 151.4 259.9 150.4 L 236.8 128.1 C 235.2 126.5 234.7 124.2 235.5 122.1 L 238.9 114.1 L 240.3 100.5 C 240.4 99 241.2 97.7 242.4 96.8 L 260.4 83 C 261.3 82.3 262.5 81.9 263.7 81.9 C 264.8 81.9 266 82.3 266.9 83 L 284.9 96.8 C 286.1 97.7 286.9 99 287 100.5 L 288.4 114.2 L 291.7 122.1 C 292.6 124.1 292.1 126.5 290.5 128.1 L 267.4 150.4 C 266.4 151.4 265.1 151.9 263.7 151.9 Z M 263.7 151.9"/>
<path transform="matrix(4.8,0,0,4.3,-1019.6,-364.6)" style="fill: rgb(0%, 0%, 0%); fill-rule: nonzero; stroke: none; fill-opacity: 1" d="M 289.1 123.3 L 285.6 115 L 284.1 100.9 C 284 100.2 283.7 99.6 283.2 99.2 L 265.1 85.4 C 264.2 84.8 263 84.8 262.2 85.4 L 244.1 99.2 C 243.6 99.6 243.2 100.2 243.2 100.9 L 241.7 114.9 L 238.2 123.3 C 237.8 124.3 238 125.3 238.8 126 L 261.9 148.4 C 262.9 149.3 264.4 149.3 265.3 148.4 L 288.5 126 C 289.3 125.3 289.5 124.2 289.1 123.3 Z M 289.1 123.3"/>
<path transform="matrix(4.8,0,0,4.3,-1019.9,-323.2)" style="fill: rgb(100%, 100%, 100%); fill-rule: nonzero; stroke: none; fill-opacity: 1" d="M 243.2 92.1 L 241.3 110 L 263.7 121.7 L 286.2 110 L 284.3 92.1 C 284.2 90.9 283.6 89.9 282.7 89.2 L 267.7 77.8 C 265.4 76 262.1 76 259.7 77.8 L 244.8 89.2 C 243.9 89.9 243.3 90.9 243.2 92.1 Z M 243.2 92.1"/>
<path transform="matrix(4.8,0,0,4.3,-1019.8,-380.9)" style="fill: rgb(100%, 100%, 100%); fill-rule: nonzero; stroke: none; fill-opacity: 1" d="M 238.3 127.2 L 249 101.4 L 263.6 95.4 L 278.3 101.4 L 289.1 127.2 C 289.5 128.1 289.3 129.2 288.5 129.9 L 265.4 152.2 C 264.4 153.2 262.9 153.2 262 152.2 L 238.8 129.9 C 238.1 129.2 237.9 128.1 238.3 127.2 Z M 238.3 127.2"/>
<path transform="matrix(4.8,0,0,4.3,-1019.8,-368.1)" style="fill: rgb(0%, 0%, 0%); fill-rule: nonzero; stroke: none; fill-opacity: 1" d="M 244.4 122.7 L 251.5 103.7 L 263.7 93.9 L 275.9 103.7 L 283 122.7 C 283.3 123.6 283.1 124.6 282.5 125.3 L 265.5 142.5 C 264.5 143.4 262.9 143.4 262 142.5 L 245 125.3 C 244.3 124.6 244.1 123.6 244.4 122.7 Z M 244.4 122.7"/>
<path transform="matrix(4.8,0,0,4.3,-1034.9,-442.5)" style="fill: rgb(100%, 100%, 100%); fill-rule: nonzero; stroke: none; fill-opacity: 1" d="M 269.9 152.3 L 270.1 150.5 L 269 150.5 L 269.3 152.3 Z M 269.9 152.3"/>
<path transform="matrix(4.8,0,0,4.3,-1019.3,-457.4)" style="fill: rgb(100%, 100%, 100%); fill-rule: nonzero; stroke: none; fill-opacity: 1" d="M 269.8 155.6 C 269.9 155.2 269.6 154.9 269.3 154.9 L 267.6 155.1 C 267.4 155.1 267.3 155.2 267.2 155.4 L 266.8 156.2 C 266.8 156.3 266.7 156.3 266.7 156.3 L 266.4 156.4 C 266.2 156.4 266.1 156.4 266.1 156.3 L 265.6 155.1 C 265.6 154.9 265.4 154.8 265.2 154.8 L 262.1 154.8 C 261.9 154.8 261.8 154.9 261.7 155.1 L 261.2 156.3 C 261.2 156.4 261 156.5 260.9 156.5 L 260.6 156.4 C 260.5 156.3 260.4 156.3 260.4 156.3 L 260 155.5 C 259.9 155.3 259.8 155.2 259.7 155.2 L 258 155 C 257.6 155 257.3 155.3 257.4 155.7 L 257.7 156.9 L 260.1 160.2 C 260.5 160.8 261.3 161.2 262.1 161.2 L 265.1 161.2 C 265.9 161.2 266.7 160.8 267.1 160.2 L 269.7 156.6 Z M 269.8 155.6"/>
<path transform="matrix(4.8,0,0,4.3,-1004.1,-442.5)" style="fill: rgb(100%, 100%, 100%); fill-rule: nonzero; stroke: none; fill-opacity: 1" d="M 258 152.3 L 258.4 150.5 L 257.3 150.5 L 257.4 152.3 Z M 258 152.3"/>
<path transform="matrix(4.8,0,0,4.3,-1065.2,-419.8)" style="fill: rgb(100%, 100%, 100%); fill-rule: nonzero; stroke: none; fill-opacity: 1" d="M 281.4 141.5 C 281.5 141.5 281.6 141.3 281.6 141.2 C 281.6 141.3 281.5 141.5 281.4 141.5 Z M 281.4 141.5"/>
<path transform="matrix(4.8,0,0,4.3,-1019.2,-389.8)" style="fill: rgb(100%, 100%, 100%); fill-rule: nonzero; stroke: none; fill-opacity: 1" d="M 255.6 133.7 C 255.6 133.9 255.8 134.1 256.1 134.1 L 257.9 134.1 L 258.2 131.9 C 258.3 131.8 258.4 131.7 258.6 131.7 L 259.5 132.1 L 260 134 C 260 134.1 260.1 134.2 260.2 134.2 L 262.4 134.1 C 262.5 134.1 262.6 134.1 262.6 134 L 263 132.3 C 263.1 132.2 263.2 132.1 263.3 132.1 L 263.8 132.1 C 264 132.1 264.1 132.2 264.1 132.3 L 264.5 133.9 C 264.5 134 264.6 134.1 264.7 134.1 L 267 134.1 C 267.1 134.1 267.2 134 267.2 133.9 L 267.6 132.1 L 268.7 131.8 C 268.8 131.8 269 131.9 269 132 L 269.2 134.1 L 271.1 133.9 C 271.3 133.9 271.4 133.7 271.5 133.6 L 271.6 133 L 269.5 122.1 L 257.7 122.1 L 255.3 134.1 L 255.5 133.1 Z M 255.6 133.7"/>
<path transform="matrix(4.8,0,0,4.3,-994.3,-415.9)" style="fill: rgb(100%, 100%, 100%); fill-rule: nonzero; stroke: none; fill-opacity: 1" d="M 253.5 138.5 L 253.3 140.7 L 254.5 140.7 L 254.1 138.5 Z M 253.5 138.5"/>
<path transform="matrix(4.8,0,0,4.3,-1019.9,-415.9)" style="fill: rgb(100%, 100%, 100%); fill-rule: nonzero; stroke: none; fill-opacity: 1" d="M 263.6 138.5 L 263.2 140.7 L 264.3 140.7 L 264 138.5 Z M 263.6 138.5"/>
<path transform="matrix(4.8,0,0,4.3,-1045.2,-415.9)" style="fill: rgb(100%, 100%, 100%); fill-rule: nonzero; stroke: none; fill-opacity: 1" d="M 273.5 138.5 L 273.1 140.7 L 274.3 140.7 L 274.1 138.5 Z M 273.5 138.5"/>
<path transform="matrix(4.8,0,0,4.3,-1019.9,-329.2)" style="fill: rgb(100%, 100%, 100%); fill-rule: nonzero; stroke: none; fill-opacity: 1" d="M 249.9 94.5 L 247.4 107 L 263.7 113.3 L 280.1 107 L 277.5 94.5 L 263.7 89.8 Z M 249.9 94.5"/>
<path transform="matrix(4.8,0,0,4.3,-1076.9,-363.2)" style="fill: rgb(100%, 100%, 100%); fill-rule: nonzero; stroke: none; fill-opacity: 1" d="M 290 125.3 L 280 123.6 C 278.7 123.4 277.8 122.1 278 120.8 L 279.9 109.9 C 280.3 108.2 282.3 107.3 283.8 108.4 L 292.8 114.8 C 293.4 115.2 293.8 115.8 293.8 116.5 L 293.9 117.7 C 294.1 119.2 293.9 120.8 293.3 122.2 L 292.7 123.7 C 292.3 124.8 291.2 125.4 290 125.3 Z M 290 125.3"/>
<path transform="matrix(4.8,0,0,4.3,-1095.7,-381.7)" style="fill: rgb(0%, 0%, 0%); fill-rule: nonzero; stroke: none; fill-opacity: 1" d="M 294.2 128.2 L 289.6 127.4 C 289.3 127.4 289.3 127 289.6 127 L 292.9 126.2 C 293.4 126.1 293.8 125.8 294.1 125.3 L 296.1 121.3 C 296.2 121 296.5 121.1 296.6 121.3 L 296.7 122.6 C 296.7 123 296.7 123.4 296.6 123.8 L 295 127.7 C 294.8 128 294.5 128.3 294.2 128.2 Z M 294.2 128.2"/>
<path transform="matrix(4.8,0,0,4.3,-962,-362.7)" style="fill: rgb(100%, 100%, 100%); fill-rule: nonzero; stroke: none; fill-opacity: 1" d="M 247.3 123.6 L 237.3 125.2 C 236.1 125.4 235 124.7 234.6 123.7 L 234 122.1 C 233.4 120.7 233.2 119.2 233.4 117.7 L 233.5 116.5 C 233.6 115.7 233.9 115.1 234.5 114.7 L 243.6 108.3 C 245 107.3 247.1 108.1 247.4 109.9 L 249.3 120.7 C 249.5 122.1 248.6 123.3 247.3 123.6 Z M 247.3 123.6"/>
<path transform="matrix(4.8,0,0,4.3,-1019.9,-417.1)" style="fill: rgb(0%, 0%, 0%); fill-rule: nonzero; stroke: none; fill-opacity: 1" d="M 263.5 138.8 L 263.9 138.8 L 264.4 141.6 L 263.1 141.6 Z M 263.5 138.8"/>
<path transform="matrix(4.8,0,0,4.3,-1004.4,-440.2)" style="fill: rgb(0%, 0%, 0%); fill-rule: nonzero; stroke: none; fill-opacity: 1" d="M 257.2 149.1 L 258.6 149.1 L 258.1 151.8 L 257.5 151.8 Z M 257.2 149.1"/>
<path transform="matrix(4.8,0,0,4.3,-1045.2,-417.1)" style="fill: rgb(0%, 0%, 0%); fill-rule: nonzero; stroke: none; fill-opacity: 1" d="M 273.5 138.8 L 274.1 138.8 L 274.4 141.6 L 273 141.6 Z M 273.5 138.8"/>
<path transform="matrix(4.8,0,0,4.3,-1034.6,-440.2)" style="fill: rgb(0%, 0%, 0%); fill-rule: nonzero; stroke: none; fill-opacity: 1" d="M 268.8 149.1 L 270.1 149.1 L 269.9 151.8 L 269.3 151.8 Z M 268.8 149.1"/>
<path transform="matrix(4.8,0,0,4.3,-994.6,-417.1)" style="fill: rgb(0%, 0%, 0%); fill-rule: nonzero; stroke: none; fill-opacity: 1" d="M 253.5 138.8 L 254.1 138.8 L 254.6 141.6 L 253.3 141.6 Z M 253.5 138.8"/>
<path transform="matrix(4.8,0,0,4.3,-1019.4,-378.2)" style="fill: rgb(0%, 0%, 0%); fill-rule: nonzero; stroke: none; fill-opacity: 1" d="M 261.3 124.6 L 263.2 121.3 C 263.4 121 263.8 121 264 121.3 L 265.9 124.6 C 266.1 125 265.7 125.5 265.3 125.3 L 263.9 124.8 C 263.7 124.7 263.5 124.7 263.2 124.8 L 261.9 125.3 C 261.5 125.5 261.1 125 261.3 124.6 Z M 261.3 124.6"/>
<path transform="matrix(4.8,0,0,4.3,-1019.6,-296.1)" style="fill: rgb(100%, 100%, 100%); fill-rule: nonzero; stroke: none; fill-opacity: 1" d="M 278.9 92.1 L 278.4 90.7 C 277.4 87.9 275.9 85.6 272.4 84.8 L 263.6 81.8 L 254.8 84.6 C 252.1 85.7 249.9 87.9 248.8 90.7 L 248.4 91.9 L 250.3 90.4 C 253.8 87.6 258 85.9 262.4 85.5 L 263.9 85.2 L 267.4 89.2 L 267.9 89.2 C 270.7 89.2 273.6 89.8 276.2 90.9 Z M 278.9 92.1"/>
<path transform="matrix(4.8,0,0,4.3,-1037.5,-313)" style="fill: rgb(100%, 100%, 100%); fill-rule: nonzero; stroke: none; fill-opacity: 1" d="M 270.9 87.8 L 266 94.4 L 270.7 93.2 L 266.5 101.4 L 267.6 100.8 L 275.4 89.7 L 272.4 89.7 L 273.4 88.5 Z M 270.9 87.8"/>
<path transform="matrix(4.8,0,0,4.3,-1025.7,-299.8)" style="fill: rgb(0%, 0%, 0%); fill-rule: nonzero; stroke: none; fill-opacity: 1" d="M 266.4 79.2 L 261.7 91.8 L 266.4 90.6 L 264 98.2 L 265 97.6 L 270.5 87.2 L 267.3 87.4 L 270.4 82.4 Z M 266.4 79.2"/>
<path transform="matrix(4.8,0,0,4.3,-1034.6,-318.1)" style="fill: rgb(0%, 0%, 0%); fill-rule: nonzero; stroke: none; fill-opacity: 1" d="M 271.6 91.5 L 266.7 102 L 266.8 101.9 L 272.3 91.5 Z M 271.6 91.5"/>
<path transform="matrix(4.8,0,0,4.3,-1039,-280.7)" style="fill: rgb(100%, 100%, 100%); fill-rule: nonzero; stroke: none; fill-opacity: 1" d="M 272.7 77.5 L 269.4 83 L 270.1 82.9 L 273.2 77.9 Z M 272.7 77.5"/>
<path transform="matrix(4.8,0,0,4.3,-1071.7,-355.1)" style="fill: rgb(0%, 0%, 0%); fill-rule: nonzero; stroke: none; fill-opacity: 1" d="M 288.1 107.3 C 288.9 115.9 282.1 116.4 278.2 114.4 C 282.6 117.5 289.4 118.1 288.1 107.3 Z M 288.1 107.3"/>
<path transform="matrix(4.8,0,0,4.3,-1064.1,-356.2)" style="fill: rgb(0%, 0%, 0%); fill-rule: nonzero; stroke: none; fill-opacity: 1" d="M 286.7 107.7 C 286.7 107.7 285.6 109.2 281.3 110.7 C 281.7 111 281.9 111.4 281.9 112 C 281.9 112.8 281.2 113.5 280.3 113.5 C 279.4 113.5 278.8 112.7 278.8 111.8 C 278.8 111.7 278.8 111.6 278.8 111.4 C 277.5 111.8 276 112.1 274.2 112.4 C 275.7 116.3 287.8 119 286.7 107.7 Z M 286.7 107.7"/>
<path transform="matrix(4.8,0,0,4.3,-1060.5,-350.4)" style="fill: rgb(100%, 100%, 100%); fill-rule: nonzero; stroke: none; fill-opacity: 1" d="M 278.1 110.6 C 278.1 111.5 278.8 112.2 279.7 112.3 C 280.5 112.3 281.3 111.6 281.3 110.7 C 281.3 110.2 281.1 109.7 280.7 109.5 C 280 109.7 279.2 110 278.2 110.2 C 278.1 110.3 278.1 110.5 278.1 110.6 Z M 278.1 110.6"/>
<path transform="matrix(4.8,0,0,4.3,-966.9,-355.1)" style="fill: rgb(0%, 0%, 0%); fill-rule: nonzero; stroke: none; fill-opacity: 1" d="M 239.2 107.3 C 238.3 115.9 245.1 116.4 249.1 114.4 C 244.7 117.5 237.8 118.1 239.2 107.3 Z M 239.2 107.3"/>
<path transform="matrix(4.8,0,0,4.3,-974.4,-356.2)" style="fill: rgb(0%, 0%, 0%); fill-rule: nonzero; stroke: none; fill-opacity: 1" d="M 240.6 107.7 C 240.6 107.7 241.7 109.2 245.9 110.7 C 245.5 111 245.3 111.4 245.3 112 C 245.3 112.8 246 113.5 246.9 113.5 C 247.8 113.5 248.5 112.7 248.5 111.8 C 248.5 111.7 248.4 111.6 248.4 111.4 C 249.7 111.8 251.3 112.1 253 112.4 C 251.5 116.3 239.4 119 240.6 107.7 Z M 240.6 107.7"/>
<path transform="matrix(4.8,0,0,4.3,-978.2,-350.4)" style="fill: rgb(100%, 100%, 100%); fill-rule: nonzero; stroke: none; fill-opacity: 1" d="M 249.3 110.6 C 249.3 111.5 248.6 112.2 247.8 112.3 C 246.9 112.3 246.1 111.6 246.1 110.7 C 246.1 110.2 246.3 109.7 246.7 109.5 C 247.4 109.7 248.2 110 249.2 110.2 C 249.3 110.3 249.3 110.5 249.3 110.6 Z M 249.3 110.6"/>
<path transform="matrix(4.8,0,0,4.3,-964.3,-324)" style="fill: rgb(0%, 0%, 0%); fill-rule: nonzero; stroke: none; fill-opacity: 1" d="M 249.7 103 C 245.5 99.6 244 95.3 234.9 97.3 C 234.9 97.3 235.1 98 235.2 98.9 C 241 95.8 244.2 100.2 249.7 103 Z M 249.7 103"/>
<path transform="matrix(4.8,0,0,4.3,-964.8,-325)" style="fill: rgb(0%, 0%, 0%); fill-rule: nonzero; stroke: none; fill-opacity: 1" d="M 249.9 103.2 C 244.9 102.1 241.7 96.6 235.4 100.7 C 235.4 99.4 235.3 99.1 235.3 99.1 C 241.1 96 244.4 100.4 249.9 103.2 Z M 249.9 103.2"/>
<path transform="matrix(4.8,0,0,4.3,-1073.4,-324)" style="fill: rgb(0%, 0%, 0%); fill-rule: nonzero; stroke: none; fill-opacity: 1" d="M 291.6 98.8 C 291.7 98 291.9 97.3 291.9 97.3 C 282.8 95.3 281.3 99.7 277.1 103 C 277.2 103 277.3 102.9 277.4 102.9 C 282.7 100.1 285.9 95.9 291.6 98.8 Z M 291.6 98.8"/>
<path transform="matrix(4.8,0,0,4.3,-943.5,-381.7)" style="fill: rgb(0%, 0%, 0%); fill-rule: nonzero; stroke: none; fill-opacity: 1" d="M 232.9 128.2 L 237.5 127.4 C 237.8 127.4 237.8 127 237.5 127 L 234.2 126.2 C 233.7 126.1 233.3 125.8 233 125.3 L 231 121.3 C 230.9 121 230.6 121.1 230.5 121.3 L 230.4 122.6 C 230.4 123 230.4 123.4 230.5 123.8 L 232.1 127.7 C 232.3 128 232.6 128.3 232.9 128.2 Z M 232.9 128.2"/>
<path transform="matrix(4.8,0,0,4.3,-1019.6,-444.7)" style="fill: rgb(100%, 100%, 100%); fill-rule: nonzero; stroke: none; fill-opacity: 1" d="M 257.8 154 L 256.3 151.9 C 256 151.6 256.3 151.1 256.7 151.1 L 260.3 151.1 L 260.5 152.9 L 261.1 152.9 L 261.4 151.1 L 265.8 151.1 L 266.2 152.9 L 266.8 152.9 L 266.9 151.1 L 270.6 151.1 C 271 151.1 271.3 151.6 271 151.9 L 269.8 153.7 L 269.9 152.7 C 269.9 152.4 269.6 152.1 269.3 152.1 L 267.6 152.2 C 267.4 152.2 267.3 152.4 267.2 152.5 L 266.8 153.4 C 266.8 153.4 266.8 153.5 266.7 153.5 L 266.4 153.6 C 266.3 153.6 266.1 153.6 266.1 153.4 L 265.7 152.2 C 265.6 152 265.4 151.9 265.2 151.9 L 262.2 152 C 262 152 261.8 152.1 261.7 152.2 L 261.2 153.5 C 261.2 153.6 261 153.7 260.9 153.6 L 260.6 153.5 C 260.5 153.5 260.5 153.5 260.4 153.4 L 260 152.6 C 260 152.5 259.8 152.4 259.7 152.4 L 258 152.2 C 257.6 152.1 257.3 152.5 257.4 152.9 Z M 257.8 154"/>
<path transform="matrix(4.8,0,0,4.3,-1062.6,-396)" style="fill: rgb(0%, 0%, 0%); fill-rule: nonzero; stroke: none; fill-opacity: 1" d="M 281 131.9 L 279.8 129.4 L 280.4 132.5 Z M 281 131.9"/>
<path transform="matrix(4.8,0,0,4.3,-977,-396)" style="fill: rgb(0%, 0%, 0%); fill-rule: nonzero; stroke: none; fill-opacity: 1" d="M 246.7 131.9 L 248 129.4 L 247.4 132.5 Z M 246.7 131.9"/>
<path transform="matrix(4.8,0,0,4.3,-1108.3,-355.6)" style="fill: rgb(0%, 0%, 0%); fill-rule: nonzero; stroke: none; fill-opacity: 1" d="M 298.3 112 C 298.3 112 298.3 112.9 297.4 114 C 298.1 113.5 298.5 112.9 298.8 112.5 Z M 298.3 112"/>
<path transform="matrix(4.8,0,0,4.3,-931.4,-355.1)" style="fill: rgb(0%, 0%, 0%); fill-rule: nonzero; stroke: none; fill-opacity: 1" d="M 229.3 111.6 C 229.3 111.6 229.2 112.6 230.2 113.7 C 229.5 113.2 229.1 112.6 228.9 112.2 Z M 229.3 111.6"/>
<path transform="matrix(4.8,0,0,4.3,-1019.9,-413.7)" style="fill: rgb(0%, 0%, 0%); fill-rule: nonzero; stroke: none; fill-opacity: 1" d="M 271.8 138.6 L 272 139.7 C 272.1 140 271.8 140.3 271.5 140.3 L 268.9 140.3 L 268.7 138.1 L 268.1 138.1 L 267.7 140.3 L 264.3 140.3 L 263.9 138.1 L 263.6 138.1 L 263.2 140.3 L 259.8 140.3 L 259.4 138.1 L 258.7 138.1 L 258.6 140.3 L 255.9 140.3 C 255.6 140.3 255.4 140 255.5 139.7 L 255.7 138.7 L 255.8 139.3 C 255.8 139.5 256 139.7 256.3 139.7 L 258.1 139.7 L 258.4 137.5 C 258.5 137.4 258.6 137.3 258.8 137.4 L 259.7 137.7 L 260.2 139.6 C 260.2 139.7 260.3 139.8 260.4 139.8 L 262.6 139.7 C 262.7 139.7 262.8 139.7 262.8 139.6 L 263.2 137.9 C 263.3 137.8 263.4 137.7 263.5 137.7 L 264.1 137.7 C 264.2 137.7 264.3 137.8 264.3 137.9 L 264.7 139.5 C 264.7 139.6 264.8 139.7 264.9 139.7 L 267.2 139.7 C 267.3 139.7 267.4 139.6 267.4 139.5 L 267.8 137.7 L 268.9 137.4 C 269 137.4 269.2 137.5 269.2 137.6 L 269.4 139.7 L 271.3 139.5 C 271.5 139.5 271.6 139.4 271.7 139.2 Z M 271.8 138.6"/>
<path transform="matrix(4.8,0,0,4.3,-1073.3,-325)" style="fill: rgb(0%, 0%, 0%); fill-rule: nonzero; stroke: none; fill-opacity: 1" d="M 277.2 103.2 C 282.1 102.1 285.3 96.6 291.6 100.7 C 291.6 99.4 291.8 99.1 291.8 99.1 C 285.9 96 282.7 100.4 277.2 103.2 Z M 277.2 103.2"/>
<path transform="matrix(4.8,0,0,4.3,-1019,-288.4)" style="fill: rgb(100%, 100%, 100%); fill-rule: nonzero; stroke: none; fill-opacity: 1" d="M 247.2 96.4 L 249.9 89.1 C 250.8 86.6 252.4 84.4 254.5 82.7 L 262 77.7 C 262.9 77.1 263.9 77.1 264.7 77.7 L 272.5 82.8 C 274.6 84.4 276.2 86.6 277.1 89.1 L 279.8 96.2 L 284.2 94.6 L 278.1 80.1 L 264.9 71.5 C 264 70.9 262.8 71 261.9 71.7 L 246.6 85.3 L 242.5 95 Z M 247.2 96.4"/>
<path transform="matrix(4.8,0,0,4.3,-986.1,-337.1)" style="fill: rgb(100%, 100%, 100%); fill-rule: nonzero; stroke: none; fill-opacity: 1" d="M 236.5 94.5 L 235.6 102.7 L 230.9 116.7 C 230.6 117.7 230.9 118.7 231.7 119.4 L 232.8 120.3 L 244.4 131.4 L 234.6 119.2 C 234.1 118.5 233.9 117.6 234.3 116.8 L 241.9 97.7 C 242.3 96.8 242.8 96 243.5 95.3 L 255.6 82.9 C 256.4 82.1 257.5 81.9 258.5 82.4 L 271.3 88.8 L 258.5 79.1 C 257.6 78.4 256.4 78.4 255.5 79.1 L 237.5 92.8 C 236.9 93.2 236.6 93.8 236.5 94.5 Z M 236.5 94.5"/>
<path transform="matrix(4.8,0,0,4.3,-907.4,-325.7)" style="fill: rgb(0%, 0%, 0%); fill-rule: nonzero; stroke: none; fill-opacity: 1" d="M 216.9 106.2 L 223.6 93.8 L 216.9 103.1 Z M 216.9 106.2"/>
<path transform="matrix(4.8,0,0,4.3,-1111.9,-323)" style="fill: rgb(100%, 100%, 100%); fill-rule: nonzero; stroke: none; fill-opacity: 1" d="M 299.2 87.3 L 303.1 90.1 L 307.9 112.9 L 299.1 92 L 290.8 84.7 Z M 299.2 87.3"/>
<path transform="matrix(4.8,0,0,4.3,-1132.6,-420.1)" style="fill: rgb(0%, 0%, 0%); fill-rule: nonzero; stroke: none; fill-opacity: 1" d="M 311.4 139.5 L 303.4 143.6 L 311.4 140.9 Z M 311.4 139.5"/>
<path transform="matrix(4.8,0,0,4.3,-1071.2,-467.4)" style="fill: rgb(100%, 100%, 100%); fill-rule: nonzero; stroke: none; fill-opacity: 1" d="M 296.5 152.6 L 277.3 171.1 L 275.8 171.7 C 274.9 172.1 273.8 171.9 273.1 171.2 L 270.9 168.9 L 273.1 169.4 C 273.8 169.6 274.6 169.4 275.2 168.9 Z M 296.5 152.6"/>
<path transform="matrix(4.8,0,0,4.3,-1019.9,-490.4)" style="fill: rgb(0%, 0%, 0%); fill-rule: nonzero; stroke: none; fill-opacity: 1" d="M 232.2 162.4 L 232.2 175 C 232.2 175.6 232.6 176.2 233.1 176.5 C 252.8 184.3 274.7 184.3 294.3 176.5 C 294.9 176.3 295.3 175.7 295.3 175 L 295.3 162.4 C 295.3 161.6 294.6 160.9 293.8 160.9 L 233.7 160.9 C 232.8 160.9 232.2 161.5 232.2 162.4 Z M 232.2 162.4"/>
<path transform="matrix(4.8,0,0,4.3,-882.1,-476.9)" style="fill: rgb(100%, 100%, 100%); fill-rule: nonzero; stroke: none; fill-opacity: 1" d="M 213.9 162 C 214 165.4 214 168.9 214.1 172.3 C 213.5 172.1 213.3 172.1 212.8 171.9 C 212.7 168.9 212.7 165.9 212.6 162.9 C 212.5 162.9 212.5 162.9 212.4 162.9 C 212.1 165.1 211.8 167.2 211.5 169.4 C 211.4 169.9 211.2 170.1 210.9 170 C 210.5 169.9 210.4 169.9 210 169.7 C 209.7 169.7 209.5 169.4 209.4 168.9 C 209.2 166.8 208.8 164.7 208.5 162.7 C 208.4 162.7 208.4 162.7 208.4 162.7 C 208.3 165.3 208.2 167.9 208.2 170.6 C 207.7 170.4 207.4 170.3 206.9 170.1 C 207 167.4 207 164.6 207.1 161.8 C 207.2 161.3 207.3 161 207.7 161 C 208.2 161 208.5 161 209 161 C 209.3 161 209.5 161.3 209.5 161.7 C 209.8 163.5 210 165.1 210.3 166.9 C 210.4 167.4 210.4 167.9 210.4 168.3 C 210.5 168.3 210.5 168.3 210.5 168.4 C 210.6 167.9 210.7 167.4 210.7 166.9 C 211 165.2 211.3 163.5 211.5 161.8 C 211.6 161.3 211.8 161 212.1 161 C 212.6 161 212.9 161 213.4 161 C 213.8 161 213.9 161.4 213.9 162 Z M 213.9 162"/>
<path transform="matrix(4.8,0,0,4.3,-919.4,-479.5)" style="fill: rgb(100%, 100%, 100%); fill-rule: nonzero; stroke: none; fill-opacity: 1" d="M 227 171.8 C 227.1 172.6 227.1 173 227.1 173.8 C 226.2 173.8 225.1 173.6 224.1 173.4 C 223.3 173.2 222.8 172.2 222.8 170.8 C 222.8 168.5 222.8 166.1 222.8 163.8 C 222.8 162.4 223.4 161.5 224.2 161.5 C 225.2 161.5 226.3 161.5 227.1 161.7 C 227.1 162.5 227.1 162.9 227.1 163.7 C 226.1 163.7 225.6 163.6 224.6 163.6 C 224.3 163.6 224.2 163.8 224.2 164.5 C 224.2 165.2 224.2 165.5 224.2 166.2 C 225.2 166.3 225.7 166.4 226.7 166.5 C 226.7 167.2 226.7 167.6 226.7 168.4 C 225.7 168.3 225.2 168.2 224.2 168.1 C 224.2 169 224.2 169.5 224.2 170.4 C 224.2 171.1 224.3 171.3 224.6 171.4 C 225.6 171.6 226.1 171.6 227 171.8 Z M 227 171.8"/>
<path transform="matrix(4.8,0,0,4.3,-948.9,-481.5)" style="fill: rgb(100%, 100%, 100%); fill-rule: nonzero; stroke: none; fill-opacity: 1" d="M 238.9 164.2 C 238.1 164.1 237.7 164.1 237 164.1 C 236.9 167.7 236.9 171.2 236.9 174.8 C 236.3 174.7 236 174.7 235.5 174.6 C 235.5 171.1 235.5 167.6 235.6 164.1 C 234.8 164.1 234.4 164.1 233.7 164 C 233.7 163.1 233.7 162.7 233.7 161.8 C 235.4 161.8 237.1 161.8 238.9 161.8 C 238.9 162.7 238.9 163.2 238.9 164.2 Z M 238.9 164.2"/>
<path transform="matrix(4.8,0,0,4.3,-977.1,-483.2)" style="fill: rgb(100%, 100%, 100%); fill-rule: nonzero; stroke: none; fill-opacity: 1" d="M 248.5 172.3 C 247.6 172.3 247.1 172.2 246.3 172.2 C 246.1 173.6 246 174.3 245.8 175.6 C 245.2 175.6 245 175.5 244.4 175.5 C 245 171.3 245.6 167.2 246.3 163 C 246.4 162.5 246.5 162.2 246.8 162.2 C 247.3 162.2 247.6 162.2 248.1 162.2 C 248.4 162.2 248.5 162.5 248.6 163 C 249.2 167.3 249.7 171.7 250.4 176 C 249.8 176 249.5 176 248.9 175.9 C 248.7 174.5 248.6 173.7 248.5 172.3 Z M 248.1 170 C 247.9 168.3 247.8 167.5 247.6 165.8 C 247.6 165.3 247.5 164.9 247.5 164.5 C 247.4 164.5 247.4 164.5 247.3 164.5 C 247.2 165 247.2 165.2 247.1 165.8 C 246.9 167.4 246.8 168.2 246.6 169.9 C 247.2 169.9 247.5 169.9 248.1 170 Z M 248.1 170"/>
<path transform="matrix(4.8,0,0,4.3,-1008.7,-483.6)" style="fill: rgb(100%, 100%, 100%); fill-rule: nonzero; stroke: none; fill-opacity: 1" d="M 261.7 162.6 C 261.6 163.4 261.6 163.8 261.6 164.7 C 261 164.7 260.2 164.6 259.6 164.6 C 258.9 164.6 258.7 164.7 258.7 165.9 C 258.7 166.8 258.9 167.1 259.3 167.4 C 259.8 167.8 260 168 260.5 168.4 C 261.7 169.3 261.9 171.1 261.9 172.4 C 261.9 174 261.6 176.6 259.5 176.4 C 259.1 176.4 258.3 176.3 257.3 175.8 C 257.4 174.9 257.4 174.5 257.4 173.6 C 258.6 173.7 259.1 173.8 259.5 173.8 C 260.2 173.8 260.4 173.6 260.4 172.5 C 260.4 171.5 260.2 171.3 259.8 170.9 C 259.3 170.6 259.1 170.3 258.5 169.9 C 257.4 169 257.2 167.3 257.2 165.9 C 257.2 164.3 257.5 162 259.5 162.1 C 260.2 162.1 261 162.2 261.7 162.6 Z M 261.7 162.6"/>
<path transform="matrix(4.8,0,0,4.3,-1039.4,-483.2)" style="fill: rgb(100%, 100%, 100%); fill-rule: nonzero; stroke: none; fill-opacity: 1" d="M 273.6 166.5 C 273.6 168 273.7 171.1 271.5 171.1 C 271.1 171.1 270.7 171.1 270.3 171 C 270.3 172.7 270.3 174.4 270.3 176.1 C 269.8 176.1 269.5 176.2 268.9 176.2 C 268.9 171.5 268.9 166.9 268.9 162.3 C 269.7 162.1 270.2 162.1 271.3 162.1 C 273.6 162 273.6 164.9 273.6 166.5 Z M 272.2 166.5 C 272.2 164.8 272 164.4 271.3 164.4 C 270.9 164.4 270.7 164.4 270.3 164.4 C 270.3 166.2 270.3 167 270.3 168.8 C 270.7 168.8 270.9 168.8 271.3 168.8 C 272 168.7 272.2 168.3 272.2 166.5 Z M 272.2 166.5"/>
<path transform="matrix(4.8,0,0,4.3,-1070.6,-483.2)" style="fill: rgb(100%, 100%, 100%); fill-rule: nonzero; stroke: none; fill-opacity: 1" d="M 286.2 168.8 C 286.2 170.8 286.4 175.5 283.5 175.9 C 280.5 176.3 280.8 170.8 280.8 169.1 C 280.8 167.3 280.5 162 283.5 162 C 286.4 162 286.2 167 286.2 168.8 Z M 282.3 169 C 282.3 170.3 282.2 173.6 283.5 173.5 C 284.8 173.4 284.7 170.1 284.7 168.9 C 284.7 167.8 284.7 164.4 283.5 164.4 C 282.2 164.4 282.3 167.8 282.3 169 Z M 282.3 169"/>
<path transform="matrix(4.8,0,0,4.3,-1105.6,-481.1)" style="fill: rgb(100%, 100%, 100%); fill-rule: nonzero; stroke: none; fill-opacity: 1" d="M 299.8 172.7 C 299.8 173.4 299.6 173.7 299.3 173.8 C 298.9 173.9 298.8 173.9 298.4 174 C 298.1 174 298 173.8 297.9 173.3 C 297.3 171.1 296.7 168.9 296.2 166.8 C 296 166.3 295.9 165.5 295.8 164.8 C 295.8 164.8 295.7 164.8 295.7 164.8 C 295.7 165.5 295.8 166.2 295.8 166.9 C 295.8 169.4 295.8 171.9 295.8 174.4 C 295.3 174.5 295 174.6 294.5 174.6 C 294.4 170.7 294.4 166.7 294.4 162.7 C 294.4 162 294.6 161.7 294.9 161.7 C 295.3 161.7 295.4 161.7 295.8 161.7 C 296 161.7 296.2 162 296.3 162.5 C 296.9 164.6 297.4 166.8 298 168.9 C 298.1 169.4 298.3 170.1 298.4 170.8 C 298.5 170.8 298.5 170.8 298.5 170.8 C 298.5 170.1 298.5 169.4 298.5 168.8 C 298.5 166.4 298.4 164 298.4 161.7 C 299 161.7 299.2 161.7 299.8 161.7 C 299.8 165.4 299.8 169 299.8 172.7 Z M 299.8 172.7"/>
<path transform="matrix(4.8,0,0,4.3,-1138,-477.6)" style="fill: rgb(100%, 100%, 100%); fill-rule: nonzero; stroke: none; fill-opacity: 1" d="M 311.6 161.3 C 311.5 162 311.5 162.3 311.5 162.9 C 311 162.9 310.2 163 309.5 163 C 308.9 163 308.6 163.1 308.6 164.1 C 308.6 164.9 308.8 165.1 309.3 165.3 C 309.8 165.6 310 165.7 310.5 165.9 C 311.5 166.4 311.8 167.4 311.9 168.9 C 312 170.6 311.4 172.1 309.6 172.6 C 309.2 172.7 308.4 172.9 307.4 172.7 C 307.4 171.9 307.4 171.5 307.5 170.8 C 308.6 170.6 309.1 170.5 309.5 170.5 C 310.2 170.3 310.5 170.1 310.5 169.2 C 310.5 168.4 310.3 168.3 309.9 168.1 C 309.4 167.8 309.1 167.7 308.6 167.5 C 307.6 167 307.3 165.9 307.2 164.2 C 307.2 162.6 307.6 160.8 309.5 160.9 C 310.1 160.9 310.9 161 311.6 161.3 Z M 311.6 161.3"/>
<path transform="matrix(4.8,0,0,4.3,-1166.6,-474.8)" style="fill: rgb(100%, 100%, 100%); fill-rule: nonzero; stroke: none; fill-opacity: 1" d="M 322.7 168 C 322.7 168.6 322.7 168.9 322.7 169.5 C 321.9 169.9 320.8 170.3 319.9 170.5 C 319 170.8 318.5 170.1 318.5 168.9 C 318.5 166.8 318.4 164.6 318.4 162.5 C 318.4 161.3 319 160.4 319.8 160.4 C 320.8 160.4 321.9 160.4 322.7 160.5 C 322.7 161.1 322.7 161.4 322.7 162 C 321.7 162.1 321.2 162.1 320.2 162.2 C 320 162.2 319.8 162.4 319.8 163 C 319.8 163.6 319.8 163.9 319.8 164.5 C 320.8 164.4 321.3 164.3 322.3 164.2 C 322.3 164.8 322.3 165.1 322.3 165.6 C 321.3 165.8 320.8 165.9 319.8 166.1 C 319.8 166.9 319.8 167.3 319.8 168 C 319.8 168.6 320 168.8 320.2 168.7 C 321.2 168.4 321.7 168.3 322.7 168 Z M 322.7 168"/>
<path transform="matrix(4.8,0,0,4.3,-1019.6,-486.9)" style="fill: rgb(100%, 100%, 100%); fill-rule: nonzero; stroke: none; fill-opacity: 1" d="M 263.7 182.2 C 253.2 182.2 242.7 180.3 232.8 176.3 C 231.9 175.9 231.4 175.2 231.4 174.2 L 231.4 161.6 C 231.4 160.3 232.4 159.3 233.6 159.3 L 239.6 159.3 L 240.5 160.2 C 240.7 160.4 240.6 160.8 240.3 160.8 L 233.6 160.8 C 233.2 160.8 232.8 161.1 232.8 161.6 L 232.8 174.2 C 232.8 174.5 233 174.8 233.3 174.9 C 252.9 182.7 274.4 182.7 294 174.9 C 294.3 174.8 294.5 174.6 294.5 174.2 L 294.5 161.6 C 294.5 161.1 294.1 160.8 293.7 160.8 L 287 160.8 C 286.7 160.8 286.6 160.4 286.8 160.2 L 287.8 159.3 L 293.7 159.3 C 294.9 159.3 295.9 160.3 295.9 161.6 L 295.9 174.2 C 295.9 175.1 295.4 175.9 294.5 176.3 C 284.6 180.3 274.1 182.2 263.7 182.2 Z M 263.7 182.2"/>
</g>
</svg>
